<svg width="48" height="53" fill="none" xmlns="http://www.w3.org/2000/svg"><path d="M42.992 11.653a.653.653 0 00-.017-.109l-.009-.025c-.003-.011-.008-.021-.013-.032l-.016-.04-.004-.017-.007-.01a.638.638 0 00-.059-.089l-.013-.017c-.008-.01-.014-.021-.023-.031l-.019-.021-.014-.013-.019-.019c-.009-.008-.02-.013-.03-.02l-.008-.006a.616.616 0 00-.05-.04c-.01-.006-.02-.009-.03-.014-.01-.006-.017-.014-.027-.018l-11.138-5.46-.403-.197-2.873-1.408c-.013-.006-.026-.005-.04-.01a.639.639 0 00-.133-.036.645.645 0 00-.131-.018.642.642 0 00-.108.02.642.642 0 00-.125.033c-.013.005-.027.004-.04.01L25.414 5.16l-1.049.513-19 9.313c-.01.005-.016.012-.025.017-.01.006-.022.009-.032.015a.624.624 0 00-.053.043l-.01.007-.023.015-.02.02-.015.013-.02.022-.022.03-.013.018a.668.668 0 00-.059.089c-.001.004-.005.006-.007.01-.003.005-.002.011-.004.017l-.016.04c-.004.01-.01.02-.014.032l-.008.025a.656.656 0 00-.017.108c-.001.014-.005.028-.005.043 0 .008-.003.015-.003.023v19.91c0 .249.142.476.366.586l11.138 5.459 3.276 1.606c.01.005.02.003.031.007.08.037.168.057.256.06h.002a.657.657 0 00.104-.015.693.693 0 00.074-.01c.014-.004.028-.013.042-.018l.04-.017c.009-.005.02-.003.029-.007l3.276-1.606 19-9.313a.653.653 0 00.366-.586v-19.91c0-.008-.003-.015-.003-.023 0-.014-.004-.028-.005-.042zM20.724 41.497v-2.076l1.966-.964v2.077l-1.966.963zm7.207-34.36l-1.79-.878 1.79-.878 1.79.878-1.79.877zm-3.276-.15l2.987 1.464c.01.004.02.002.03.006.08.038.168.058.256.06h.006a.655.655 0 00.256-.06c.01-.004.02-.002.03-.006l2.987-1.464 6.377 3.125-.77.377-1.31.643a.608.608 0 00-.06.046.52.52 0 00-.19.188.604.604 0 00-.049.064c-.006.013-.005.026-.01.04a.72.72 0 000 .496c.005.013.004.027.01.04a.64.64 0 00.076.111c.009.011.014.024.024.034a.644.644 0 00.18.14c.008.003.012.01.019.013l2.08 1.02-13.708 6.718-.531.26-1.022-.5-1.965-.963c-.013-.006-.026-.005-.039-.01a.73.73 0 00-.498 0c-.014.005-.028.003-.04.01l-1.966.963-1.022.5-6.377-3.125 2.08-1.02c.007-.003.01-.01.018-.013a.645.645 0 00.182-.14l.022-.032a.636.636 0 00.077-.112c.006-.013.005-.027.01-.04a.721.721 0 000-.497c-.005-.013-.004-.027-.01-.04a.612.612 0 00-.049-.062.518.518 0 00-.187-.187.634.634 0 00-.063-.049l-1.31-.642-.77-.377 14.24-6.98zM41.69 27.689l-.655.32V16.622l.655-.322v11.39zm-30.275 7.74a.523.523 0 00-.054-.024l-1.775-.875v-.975a.615.615 0 00-.018-.092.643.643 0 00-.029-.14 1.712 1.712 0 00-.132-.21.653.653 0 00-.112-.087.636.636 0 00-.075-.058l-.944-.462v-11.39l.366.18c.005.002.011.001.016.004.084.04.176.06.268.062h.006a.654.654 0 00.283-.07.647.647 0 00.152-.103c.011-.01.023-.016.033-.026a.648.648 0 00.119-.165c.003-.006.002-.012.005-.018.024-.083.044-.168.059-.253 0-.006.003-.011.003-.018v-.331l2.62 1.284v6.67l-1.02-.502a.657.657 0 00-.943.63c.015.233.155.44.365.543l1.599.784v6.03l-.792-.389zm-.807-19.913l.114.056-1.791.877-1.79-.878 1.79-.877 1.677.822zm9.461 4.637l1.677.822.114.056-1.791.877-1.79-.877.113-.056 1.677-.822zM34.887 16.8l-.011.006-2.61 1.279-.009.004-2.615 1.28-.002.002L24 22.133v-.695l14.414-7.065v.697l-.986.488-.019.008-.008.003-.03.013-2.484 1.217zM24 37.41c0-.007-.003-.012-.004-.018a2.219 2.219 0 00-.059-.253c-.002-.006-.001-.012-.004-.018a.621.621 0 00-.058-.074.64.64 0 00-.087-.113 1.703 1.703 0 00-.211-.131.643.643 0 00-.142-.029.612.612 0 00-.09-.018c-.006 0-.011.003-.017.004-.086.014-.171.034-.255.059-.005.002-.011.001-.017.004l-.366.18v-11.39l.944-.462a.653.653 0 00.366-.587v12.845zm-7.862-15.276l-6.552-3.211v-.696l6.086 2.983.466.229v.695zM6.31 16.621l1.966.963v2.076l-1.966-.963v-2.076zm11.138 7.535V22.08l1.966.963v2.077l-1.966-.964zm3.276-1.113l1.966-.963v2.076l-1.966.964v-2.077zm16.669-11.38l1.676-.823 1.676.822.114.056-1.79.877-1.79-.877.114-.056zM6.31 20.152l.656.321v11.39l-.656-.322v-11.39zm7.207 10.276l1.022.501a.652.652 0 10.578-1.173l-1.6-.784v-6.668l2.62 1.284v.974c0 .25.143.477.367.587l.944.462v11.39l-.366-.18c-.006-.003-.012-.002-.018-.005a2.191 2.191 0 00-.254-.058c-.006 0-.01-.004-.017-.004a.611.611 0 00-.09.018.65.65 0 00-.142.029 1.741 1.741 0 00-.211.131.643.643 0 00-.087.113.611.611 0 00-.058.074c-.003.006-.002.012-.004.018a2.23 2.23 0 00-.06.253c0 .006-.003.011-.003.017v.333l-2.62-1.283v-6.029zm5.242-4.175l.655.322v11.389l-.655-.321v-11.39zm1.965.322l.655-.322v11.39l-.655.321v-11.39zm4.586-3.629l1.31-.642v14.15l-1.31.643v-14.15zm2.621-1.284l1.31-.642v14.15l-1.31.642v-14.15zm2.62-1.284l1.311-.642v14.15l-1.31.642v-14.15zm2.621-1.284l1.31-.642v14.149l-1.31.642V19.095zm2.621-1.284l1.31-.642v14.148l-1.31.643V17.81zm2.987 11.304a.619.619 0 00-.076.058.642.642 0 00-.112.086 1.72 1.72 0 00-.131.211.64.64 0 00-.028.136.603.603 0 00-.02.095V16.856a.653.653 0 00.945.586l.366-.18v11.39l-.944.463zm2.91-14.271l-1.966.963V13.73l1.966-.963v2.077zM6.31 32.998l1.966.964v2.076l-1.966-.963v-2.077zm3.276 2.99l1.243.612.03.014.01.004.016.007 5.253 2.571v.696L9.586 36.68v-.692zm7.862 2.47l1.966.963v2.076l-1.966-.963v-2.077zm6.552.738l14.414-7.065v.696L24 39.892v-.696zm15.724-7.012v-2.076l1.966-.963v2.076l-1.966.963z" fill="#4894FF"/></g><defs><clipPath id="clip0"><path fill="#fff" transform="translate(5 4)" d="M0 0h38v49H0z"/></clipPath></defs></svg>
