<svg width="48" height="56" fill="none" xmlns="http://www.w3.org/2000/svg"><path d="M43.23 8.586a.674.674 0 00-.244-.368.696.696 0 00-.423-.143h-3.438a.696.696 0 00-.423.143.674.674 0 00-.244.368l-.557 2.189h-.839v1.35h2.063v5.4H32.25V14.15a.669.669 0 00-.201-.477.694.694 0 00-.486-.198h-8.25a.694.694 0 00-.487.198.669.669 0 00-.201.477v3.375h-4.813v-.675a.669.669 0 00-.2-.477.694.694 0 00-.487-.198H15.75V14.15a.665.665 0 00-.201-.477.687.687 0 00-.486-.198h-.688v-1.35H13v1.35h-1.375v-2.7h2.063v-1.35h-5.5v1.35h2.062v2.7H8.875v-1.35H7.5v1.35h-.688a.694.694 0 00-.486.198.669.669 0 00-.201.477v2.025H4.75a.694.694 0 00-.486.198.669.669 0 00-.202.477v1.35a.665.665 0 00.307.562l1.756 1.15V23.6H4.062a.694.694 0 00-.486.198.669.669 0 00-.201.477V29a9.32 9.32 0 001.25 4.654A9.537 9.537 0 008.047 37.1H6.125v1.35h35.75V37.1H40.5v-3.022a9.802 9.802 0 003.036-3.471 9.607 9.607 0 001.089-4.45v-1.882a.663.663 0 00-.01-.105h.002L42.68 12.125h1.945v-1.35h-.838l-.557-2.189zm-3.568.839h2.364l.343 1.35h-3.051l.344-1.35zM35.688 23.6a.696.696 0 00-.413.135l-2.567 1.89h-.458v-2.7h6.875v.675h-3.438zm-13.063-4.725v2.7H15.75v-1.664l1.583-1.036h5.292zm8.25 2.7H24v-2.7h6.875v2.7zm-15.125 1.35h6.875v2.7H15.75v-2.7zm8.25 0h6.875v2.7H24v-2.7zm15.125-1.35H32.25v-2.7h6.875v2.7zm-8.25-6.75v2.7H24v-2.7h6.875zm-23.375 0h6.875v1.35H7.5v-1.35zm-.306 4.163l-1.756-1.15v-.313h11v.314l-1.757 1.15a.68.68 0 00-.306.561v6.075H9.847l-1.86-1.827A.694.694 0 007.5 23.6v-4.05a.665.665 0 00-.306-.562zM13 37.1c-1.16 0-2.307-.24-3.366-.705A8.224 8.224 0 016.856 34.4h32.269v2.7H13zm30.25-10.943a8.279 8.279 0 01-.965 3.886 8.452 8.452 0 01-2.686 3.007H5.857A7.938 7.938 0 014.75 29v-4.05h2.465l1.861 1.827a.694.694 0 00.486.198h23.376a.696.696 0 00.412-.135l2.567-1.89h7.333v1.207zm-.117-2.557H40.5V12.125h.788L43.133 23.6z" fill="#4894FF"/><path d="M10.25 18.875H8.875v1.35h1.375v-1.35zM13 18.875h-1.375v1.35H13v-1.35zM10.25 21.575H8.875v1.35h1.375v-1.35zM13 21.575h-1.375v1.35H13v-1.35zM4.75 37.1H3.375v1.35H4.75V37.1zM44.625 37.1H43.25v1.35h1.375V37.1z" fill="#4894FF"/></svg>
