<svg width="50" height="63" fill="none" xmlns="http://www.w3.org/2000/svg"><path d="M42.38 15.17l3.03-5.62a.752.752 0 00-.66-1.114h-7.315V4.31a.752.752 0 00-.75-.756H25.57V2.545a.752.752 0 00-.75-.756.752.752 0 00-.75.756V25.67h-7.715a2.487 2.487 0 00-2.475 2.494v1.81h-1.605V28.36a.752.752 0 00-.75-.756h-6.28a.752.752 0 00-.75.756v17.353c0 .418.335.756.75.756h6.28c.415 0 .75-.338.75-.756v-1.411h1.605v1.809a2.487 2.487 0 002.475 2.495H34.53c1.58 0 2.87-1.296 2.87-2.893 0-.605-.185-1.165-.5-1.628a2.865 2.865 0 001.805-2.666v-.06c0-.58-.175-1.125-.47-1.578a2.86 2.86 0 001.775-2.651v-.06a2.874 2.874 0 00-1.77-2.652c.295-.448.465-.988.465-1.562v-.06c0-1.578-1.275-2.863-2.84-2.863H29.81v-1.381c0-1.341-.91-2.47-2.14-2.793a.748.748 0 00-.365-.1H25.57v-8.634h6.565v4.123c0 .418.335.756.75.756H44.75a.752.752 0 00.66-1.114l-3.03-5.62zM10.775 44.962h-4.78V29.116h4.78v15.846zm23.755 2.137h-7.59c-.755 0-1.37-.62-1.37-1.381s.615-1.381 1.37-1.381h7.59c.755 0 1.37.62 1.37 1.38 0 .762-.615 1.382-1.37 1.382zm2.675-5.675c0 .746-.6 1.35-1.34 1.35H26.91c-.74 0-1.34-.604-1.34-1.35v-.06c0-.747.6-1.351 1.34-1.351h8.955c.74 0 1.34.604 1.34 1.35v.06zm1.305-4.29c0 .747-.6 1.351-1.34 1.351h-7.7c.215-.403.335-.861.335-1.35v-1.411H37.165c.74 0 1.34.604 1.34 1.35v.06h.005zm-2.645-5.68c.74 0 1.34.605 1.34 1.351v.06c0 .747-.6 1.352-1.34 1.352H29.81v-2.762h6.055zm-7.555 5.68c0 .747-.6 1.351-1.34 1.351h-.06c-.74 0-1.34-.604-1.34-1.35v-6.436a.752.752 0 00-.75-.756.752.752 0 00-.75.756c0 3.336-2.695 6.053-6.005 6.053a.752.752 0 00-.75.756c0 .418.335.756.75.756 2.455 0 4.635-1.2 6.005-3.045v1.92c0 .837.36 1.593.93 2.112a2.861 2.861 0 00-.93 2.112v.06c0 .852.375 1.619.96 2.143-.59.529-.96 1.295-.96 2.152 0 .499.125.967.35 1.38h-8.065a.98.98 0 01-.975-.982v-3.321h-3.105v-11.31h3.105v-3.322a.98.98 0 01.975-.982H26.94c.755 0 1.37.62 1.37 1.38v8.574zM25.57 5.066h10.37v10.448H25.57V5.065zm8.065 15.327v-3.367h3.05c.415 0 .75-.338.75-.756V9.944h6.055l-2.625 4.863a.766.766 0 000 .721l2.625 4.864h-9.855z" fill="#4894FF"/></svg>