<svg xmlns="http://www.w3.org/2000/svg" viewBox="0 0 110 117"><path d="M22.2 64.6h-1.6c-1.2 0-2.4.5-3.3 1.4-.9.9-1.4 2.1-1.4 3.3v21.8c0 1.2.5 2.4 1.4 3.3.9.9 2.1 1.4 3.3 1.4h1.6v4.7c0 2.6 2.1 4.7 4.7 4.7h62.4c2.6 0 4.7-2.1 4.7-4.7V19.4c0-2.6-2.1-4.7-4.7-4.7H47.2c-.4 0-.8.2-1.1.5L22.7 38.6c-.3.3-.5.7-.5 1.1v25Zm3.1 31.2v4.7c0 .9.7 1.6 1.6 1.6h62.4c.9 0 1.6-.7 1.6-1.6V19.4c0-.9-.7-1.6-1.6-1.6H48.7v21.8c0 .9-.7 1.6-1.6 1.6H25.3v23.4h48.4c1.2 0 2.4.5 3.3 1.4.9.9 1.4 2.1 1.4 3.3v21.8c0 1.2-.5 2.4-1.4 3.3-.9.9-2.1 1.4-3.3 1.4H25.3Zm49.9-26.5v21.8c0 .4-.2.8-.5 1.1-.3.3-.7.5-1.1.5h-53c-.4 0-.8-.2-1.1-.5-.3-.3-.5-.7-.5-1.1V69.3c0-.4.2-.8.5-1.1.3-.3.7-.5 1.1-.5h53.1c.4 0 .8.2 1.1.5.3.3.5.7.5 1.1ZM62.7 81.8H69c.9 0 1.6-.7 1.6-1.6s-.7-1.6-1.6-1.6h-6.3v-4.7H69c.9 0 1.6-.7 1.6-1.6s-.7-1.6-1.6-1.6h-7.8c-.9 0-1.6.7-1.6 1.6v15.6c0 .9.7 1.6 1.6 1.6s1.6-.7 1.6-1.6v-6.2Zm-35.9 0h3.9c3 0 5.5-2.4 5.5-5.5s-.6-2.8-1.6-3.9c-1-1-2.4-1.6-3.9-1.6h-5.5c-.9 0-1.6.7-1.6 1.6V88c0 .9.7 1.6 1.6 1.6s1.6-.7 1.6-1.6v-6.2ZM54.9 79c0-4.5-3.7-8.2-8.2-8.2h-4.3c-.9 0-1.6.7-1.6 1.6V88c0 .9.7 1.6 1.6 1.6h4.3c4.5 0 8.2-3.7 8.2-8.2V79Zm-3.1 0v2.4c0 2.8-2.3 5.1-5.1 5.1h-2.8V74h2.8c2.8 0 5.1 2.3 5.1 5.1Zm-25-.3h3.9c1.3 0 2.3-1 2.3-2.3s-.2-1.2-.7-1.7c-.4-.4-1-.7-1.7-.7h-3.9v4.7Zm12.5-20.3H83c.9 0 1.6-.7 1.6-1.6s-.7-1.6-1.6-1.6H39.3c-.9 0-1.6.7-1.6 1.6s.7 1.6 1.6 1.6Zm0-7.8H83c.9 0 1.6-.7 1.6-1.6s-.7-1.6-1.6-1.6H39.3c-.9 0-1.6.7-1.6 1.6s.7 1.6 1.6 1.6Zm17.2-7.8H83c.9 0 1.6-.7 1.6-1.6s-.7-1.6-1.6-1.6H56.5c-.9 0-1.6.7-1.6 1.6s.7 1.6 1.6 1.6ZM45.6 20 27.5 38.1h18.1V20Zm10.9 15H83c.9 0 1.6-.7 1.6-1.6s-.7-1.6-1.6-1.6H56.5c-.9 0-1.6.7-1.6 1.6s.7 1.6 1.6 1.6Z" style="fill:#4894ff;fill-rule:evenodd"/></svg>