<svg width="48" height="58" fill="none" xmlns="http://www.w3.org/2000/svg"><path d="M16.059 34.155H4.875a.715.715 0 01-.508-.213.728.728 0 01-.21-.512v-4.517a9.779 9.779 0 011.356-4.956 9.67 9.67 0 013.675-3.563.714.714 0 01.797.073 6.283 6.283 0 003.867 1.333c1.4 0 2.76-.47 3.867-1.333a.716.716 0 01.784-.08 9.35 9.35 0 012.156 1.639c.216.21.42.432.61.666a.728.728 0 01.024.887.72.72 0 01-.239.208 8.219 8.219 0 00-3.113 3.037 8.311 8.311 0 00-1.142 4.213v2.4a.732.732 0 01-.22.516.719.719 0 01-.52.202zm-10.465-1.45h9.746V31.03c0-1.586.386-3.148 1.123-4.55a9.695 9.695 0 013.103-3.49 8.457 8.457 0 00-1.38-1.095 7.709 7.709 0 01-4.363 1.355 7.709 7.709 0 01-4.362-1.355 8.235 8.235 0 00-2.835 3.003 8.322 8.322 0 00-1.032 4.015v3.792z" fill="#4894FF"/><path d="M13.816 20.64a5.18 5.18 0 01-2.895-.885 5.247 5.247 0 01-1.919-2.359 5.299 5.299 0 01-.297-3.037 5.27 5.27 0 011.427-2.691 5.197 5.197 0 012.668-1.439 5.17 5.17 0 013.01.3 5.221 5.221 0 012.339 1.935 5.289 5.289 0 01-.65 6.635 5.196 5.196 0 01-3.683 1.542zm0-9.062a3.75 3.75 0 00-2.096.642 3.799 3.799 0 00-1.39 1.708 3.837 3.837 0 00.818 4.148 3.743 3.743 0 004.112.825 3.78 3.78 0 001.694-1.402 3.83 3.83 0 00.636-2.114 3.83 3.83 0 00-1.115-2.676 3.764 3.764 0 00-2.659-1.109v-.022zM16.059 34.133H7.872a.716.716 0 01-.508-.212.728.728 0 01-.21-.513V28.79c0-.193.075-.377.21-.513a.716.716 0 011.016 0c.135.136.21.32.21.513v3.893h6.75V31.03a9.634 9.634 0 011.754-5.553.718.718 0 01.999-.182.722.722 0 01.288.756.727.727 0 01-.116.26 8.176 8.176 0 00-1.48 4.719v2.378a.73.73 0 01-.449.672.714.714 0 01-.277.053zM45.125 34.155h-11.17a.716.716 0 01-.508-.213.728.728 0 01-.21-.512v-2.4c0-1.09-.214-2.168-.63-3.174a8.249 8.249 0 00-1.792-2.684 7.43 7.43 0 00-1.826-1.378.72.72 0 01-.365-.818.728.728 0 01.142-.284 9.65 9.65 0 012.746-2.298.713.713 0 01.798.066 6.162 6.162 0 003.881 1.34 6.226 6.226 0 003.903-1.34.715.715 0 01.776-.073c.793.44 1.519.991 2.156 1.639a9.73 9.73 0 012.09 3.16 9.795 9.795 0 01.728 3.727v4.517a.728.728 0 01-.21.512.716.716 0 01-.509.213zm-10.45-1.45h9.731v-3.792a8.344 8.344 0 00-1.028-4.01 8.258 8.258 0 00-2.824-3.008 7.715 7.715 0 01-4.367 1.356 7.715 7.715 0 01-4.366-1.356 8.54 8.54 0 00-1.373 1.095c.496.34.958.73 1.38 1.16a9.683 9.683 0 012.122 3.149c.493 1.181.75 2.45.753 3.731l-.029 1.675z" fill="#4894FF"/><path d="M36.184 20.64a5.179 5.179 0 01-2.893-.889 5.247 5.247 0 01-1.916-2.36 5.298 5.298 0 01-.294-3.036 5.27 5.27 0 011.428-2.69 5.196 5.196 0 012.668-1.436 5.17 5.17 0 013.01.3 5.222 5.222 0 012.337 1.936 5.29 5.29 0 01-.653 6.637 5.196 5.196 0 01-3.687 1.539zm0-9.062a3.75 3.75 0 00-2.095.645 3.8 3.8 0 00-1.386 1.71 3.837 3.837 0 00.822 4.145 3.743 3.743 0 004.111.822 3.781 3.781 0 001.693-1.402 3.83 3.83 0 00.635-2.114 3.83 3.83 0 00-1.117-2.677 3.764 3.764 0 00-2.663-1.107v-.022zM42.142 34.133h-8.186a.716.716 0 01-.509-.212.728.728 0 01-.21-.513V31.03a8.227 8.227 0 00-1.48-4.72.725.725 0 01-.124-.873.722.722 0 01.493-.357.712.712 0 01.78.397 9.635 9.635 0 011.747 5.553v1.653h6.749V28.79c0-.193.076-.377.21-.513a.716.716 0 011.017 0c.135.136.21.32.21.513v4.618a.716.716 0 01-.697.725z" fill="#4894FF"/><path d="M33.956 36.25H16.059a.716.716 0 01-.509-.212.728.728 0 01-.21-.513V31.03a9.634 9.634 0 011.754-5.553 9.66 9.66 0 013.256-2.959.713.713 0 01.797.066A6.176 6.176 0 0025 23.925a6.069 6.069 0 003.838-1.327c.047-.04.1-.072.158-.094a.714.714 0 01.654 0 8.976 8.976 0 012.157 1.638c.408.411.776.86 1.1 1.342a9.634 9.634 0 011.739 5.546v4.495a.728.728 0 01-.2.503.716.716 0 01-.49.222zM16.777 34.8h16.46v-3.77a8.403 8.403 0 00-2.422-5.858 7.87 7.87 0 00-1.438-1.16A7.495 7.495 0 0125 25.375a7.644 7.644 0 01-4.363-1.356 8.26 8.26 0 00-2.379 2.284 8.169 8.169 0 00-1.488 4.727l.008 3.77z" fill="#4894FF"/><path d="M25 22.758a5.179 5.179 0 01-2.895-.886 5.247 5.247 0 01-1.92-2.359 5.299 5.299 0 01-.296-3.037 5.271 5.271 0 011.426-2.691 5.198 5.198 0 012.668-1.439 5.169 5.169 0 013.011.3 5.22 5.22 0 012.339 1.935 5.289 5.289 0 01-.65 6.635A5.196 5.196 0 0125 22.758zm0-9.063a3.75 3.75 0 00-2.096.642 3.8 3.8 0 00-1.39 1.708 3.837 3.837 0 00.818 4.148 3.743 3.743 0 004.112.825 3.78 3.78 0 001.694-1.402 3.83 3.83 0 00-.47-4.806A3.757 3.757 0 0025 13.695zM30.958 36.25H19.056a.716.716 0 01-.508-.212.728.728 0 01-.21-.513v-4.618c0-.193.075-.377.21-.513a.716.716 0 011.227.513V34.8H30.24v-3.893c0-.193.075-.377.21-.513a.716.716 0 011.227.513v4.618a.728.728 0 01-.21.513.715.715 0 01-.509.212z" fill="#4894FF"/></svg>