<svg width="48" height="57" fill="none" xmlns="http://www.w3.org/2000/svg"><path d="M8.918 7C7.314 7 6 8.303 6 9.893v18.482c0 1.59 1.314 2.907 2.918 2.907H23.02V35.4c-1.29.412-2.271 1.643-2.271 3.093 0 1.79 1.488 3.163 3.22 3.163a3.145 3.145 0 003.162-3.163c0-1.471-.967-2.713-2.271-3.107v-4.104h14.102c1.604 0 2.918-1.317 2.918-2.907V9.893C41.88 8.303 40.566 7 38.962 7H8.918zm0 1.824h30.044c.616 0 1.078.458 1.078 1.069v.598H7.84v-.598c0-.611.462-1.069 1.078-1.069zM7.84 12.315h32.2v13.638H7.84V12.315zm23.647 1.896a.928.928 0 00-.638.297.908.908 0 00.061 1.29c.18.163.42.248.663.237h1.107l-5.635 3.975-4.557-5.087a.92.92 0 00-.733-.3.926.926 0 00-.503.172l-9.847 7.253a.916.916 0 00-.371.599.906.906 0 00.436.924.925.925 0 001.027-.055l9.186-6.755 4.528 5.073a.923.923 0 001.222.143l6.598-4.66v1.154a.905.905 0 00.265.654.921.921 0 001.01.2.921.921 0 00.499-.5.905.905 0 00.066-.354v-3.348a.908.908 0 00-.27-.645.924.924 0 00-.65-.268h-3.378a.953.953 0 00-.086 0zM7.84 27.776h32.2v.599a1.06 1.06 0 01-1.078 1.083H8.918a1.06 1.06 0 01-1.078-1.083v-.599zm16.129 9.32c.808 0 1.38.668 1.38 1.397 0 .728-.572 1.325-1.38 1.325-.809 0-1.438-.597-1.438-1.325 0-.729.63-1.397 1.438-1.397z" fill="#4894FF"/></svg>