<svg width="50" height="63" fill="none" xmlns="http://www.w3.org/2000/svg"><path d="M42.969 14.175h-1.06a7.095 7.095 0 002.622-5.512c0-3.909-3.154-7.088-7.031-7.088s-7.031 3.18-7.031 7.088a7.095 7.095 0 002.622 5.512h-1.06c-3.015 0-5.468 2.473-5.468 5.512v3.15h-3.126v-3.15c0-3.039-2.453-5.512-5.468-5.512h-1.06a7.095 7.095 0 002.622-5.512c0-3.909-3.154-7.088-7.031-7.088s-7.031 3.18-7.031 7.088a7.095 7.095 0 002.622 5.512H7.03c-3.015 0-5.468 2.473-5.468 5.512v11.025c0 .436.35.788.78.788H5.47v16.538c0 .435.35.787.781.787h12.5a.784.784 0 00.781-.788V28.35H30.47v19.688c0 .435.35.787.781.787h12.5a.784.784 0 00.781-.788V31.5h3.125a.784.784 0 00.782-.788V19.688c0-3.04-2.454-5.513-5.47-5.513zm-4.019 7.662l-1.45 1.462-1.45-1.462 1.45-4.384 1.45 4.384zm-4.58-8.661c2.125-.61 3.13-2.424 3.13-3.726h-1.563c0 .798-.87 2.254-2.93 2.345a5.507 5.507 0 01-.976-3.132c0-3.04 2.453-5.513 5.469-5.513 3.016 0 5.469 2.474 5.469 5.513 0 3.038-2.453 5.512-5.469 5.512a5.406 5.406 0 01-3.13-1zm-20.42 8.66L12.5 23.3l-1.45-1.462 1.45-4.384 1.45 4.384zM7.031 8.664c0-3.04 2.453-5.513 5.469-5.513 3.016 0 5.469 2.474 5.469 5.513a5.507 5.507 0 01-.975 3.132c-2.06-.091-2.931-1.547-2.931-2.345H12.5c0 1.303 1.005 3.115 3.13 3.726-.888.627-1.966.999-3.13.999-3.016 0-5.469-2.474-5.469-5.512zm4.688 25.2V44.1H7.03V31.5H17.97v12.6H13.28V33.862H11.72zM7.03 47.25v-1.575h4.688v1.575H7.03zm6.25 0v-1.575h4.688v1.575H13.28zm4.688-27.563v10.238H7.03V19.687H5.47v10.238H3.125V19.687c0-2.17 1.752-3.937 3.906-3.937h4.385l-2.001 6.051a.79.79 0 00.189.806l2.344 2.362a.776.776 0 001.104 0l2.344-2.362a.793.793 0 00.19-.806l-2.002-6.051h4.385c2.154 0 3.906 1.766 3.906 3.938v3.937c0 .436.35.788.781.788h1.563v2.362H19.53v-7.087H17.97zM32.03 47.25v-1.575h4.688v1.575H32.03zm6.25 0v-1.575h4.688v1.575H38.28zM36.72 33.862V44.1H32.03V31.5H42.97v12.6H38.28V33.862H36.72zm10.156-3.937h-2.344V19.687H42.97v10.238H32.03V19.687H30.47v7.088H25.78v-2.362h1.563a.784.784 0 00.781-.788v-3.938c0-2.17 1.752-3.937 3.906-3.937h4.385l-2.001 6.051a.79.79 0 00.189.806l2.344 2.362a.776.776 0 001.104 0l2.344-2.362a.793.793 0 00.19-.806l-2.002-6.051h4.385c2.154 0 3.906 1.766 3.906 3.938v10.237z" fill="#4894FF"/></svg>