<svg width="48" height="52" fill="none" xmlns="http://www.w3.org/2000/svg"><g fill="#4894FF"><path d="M34.292 42.4c-2.182 0-3.959-1.795-3.959-4s1.777-4 3.959-4c2.181 0 3.958 1.795 3.958 4s-1.776 4-3.958 4zm0-6.4c-1.31 0-2.375 1.077-2.375 2.4s1.065 2.4 2.375 2.4 2.375-1.077 2.375-2.4S35.6 36 34.292 36zM18.458 42.4c-2.181 0-3.958-1.795-3.958-4s1.776-4 3.958-4c2.182 0 3.959 1.795 3.959 4s-1.777 4-3.959 4zm0-6.4c-1.31 0-2.375 1.077-2.375 2.4s1.066 2.4 2.375 2.4c1.31 0 2.375-1.077 2.375-2.4S19.768 36 18.458 36zM37.458 32.8H19.185c-2.631 0-4.918-1.893-5.434-4.5L9.893 8.8H5.792A.796.796 0 015 8c0-.442.355-.8.792-.8h4.75c.377 0 .701.269.776.643l3.986 20.141c.37 1.864 2.002 3.216 3.881 3.216h18.273c.437 0 .792.358.792.8 0 .442-.355.8-.792.8z"/><path d="M15.292 29.6a.796.796 0 01-.784-.695.8.8 0 01.68-.899l23.217-3.128.662-2.672a.787.787 0 01.96-.582.8.8 0 01.576.97l-.792 3.2a.794.794 0 01-.663.6l-23.75 3.2a.836.836 0 01-.106.006zM23.208 13.6H12.125a.796.796 0 01-.792-.8c0-.442.355-.8.792-.8h11.083c.437 0 .792.358.792.8 0 .442-.355.8-.792.8zM34.292 21.6c-4.803 0-8.709-3.947-8.709-8.8 0-4.853 3.907-8.8 8.709-8.8S43 7.947 43 12.8c0 4.853-3.906 8.8-8.708 8.8zm0-16c-3.929 0-7.125 3.23-7.125 7.2s3.196 7.2 7.125 7.2c3.928 0 7.125-3.23 7.125-7.2s-3.197-7.2-7.125-7.2z"/><path d="M32.708 16.8a.79.79 0 01-.56-.234l-3.167-3.2a.806.806 0 010-1.13.786.786 0 011.12 0l2.607 2.633 5.773-5.834a.786.786 0 011.12 0 .806.806 0 010 1.131l-6.334 6.4a.785.785 0 01-.559.234z"/></g><defs><clipPath id="clip0"><path fill="#fff" transform="translate(5 4)" d="M0 0h38v48H0z"/></clipPath></defs></svg>
