<svg version="1.1" id="Layer_1" xmlns="http://www.w3.org/2000/svg" xmlns:xlink="http://www.w3.org/1999/xlink" x="0px" y="0px"
	 viewBox="0 0 211.4 44.3" style="enable-background:new 0 0 211.4 44.3;" xml:space="preserve">
<g>
	<g>
		<g>
			<path style="fill:#E12726;" d="M27.6,20.2c-1.2,0-1.9,0.9-1.9,2.6v1c0,1.6,0.7,2.5,1.8,2.5c1.5,0,2-1.2,2-3.3
				C29.5,21.1,28.9,20.2,27.6,20.2z"/>
			<path style="fill:#E12726;" d="M22.2,0C9.9,0,0,9.9,0,22.2c0,12.2,9.9,22.2,22.2,22.2c12.2,0,22.2-9.9,22.2-22.2
				C44.3,9.9,34.4,0,22.2,0z M17,30.6h-6.7V15.4H17V30.6z M13.7,14.5c-1.9,0-3.8-1.1-3.8-3.4s1.8-3.4,3.8-3.4c1.9,0,3.8,1.1,3.8,3.4
				S15.7,14.5,13.7,14.5z M29.8,31c-1.9,0-3.6-0.9-4.1-2.2v8.5H19V15.4h6l0.8,2.8c0.6-2,2.3-3.2,4.5-3.2c3.9,0,6.1,2.9,6.1,7.6
				C36.4,28.2,33.9,31,29.8,31z"/>
		</g>
		<g>
			<path style="fill:#E12726;" d="M59.5,14.2v17.7h-3.6V14.2H59.5z"/>
			<path style="fill:#E12726;" d="M65.5,20.7c0.8-2.1,2.3-3,4.4-3c2.2,0,4.1,1.3,4.1,4.3v9.8h-3.6v-8.6c0-1.6-0.5-2.6-2-2.6
				c-1.4,0-2.8,0.8-2.8,3.4v7.7H62V18h3L65.5,20.7z"/>
			<path style="fill:#E12726;" d="M81.8,31.8c-0.8,0.2-1.4,0.3-2.1,0.3c-1.9,0-3.6-0.9-3.6-3.4v-17h3.6v16c0,0.9,0.5,1.2,1.3,1.2
				c0.4,0,0.7-0.1,1.1-0.2L81.8,31.8z"/>
			<path style="fill:#E12726;" d="M85.6,11.5c1.3,0,2.3,0.8,2.3,2.2c0,1.3-1,2.1-2.3,2.1c-1.2,0-2.2-0.8-2.2-2.1
				C83.4,12.3,84.4,11.5,85.6,11.5z M87.4,18v13.9h-3.6V18H87.4z"/>
			<path style="fill:#E12726;" d="M93.2,20.7c0.8-2.1,2.3-3,4.4-3c2.2,0,4.1,1.3,4.1,4.3v9.8h-3.6v-8.6c0-1.6-0.5-2.6-2-2.6
				c-1.4,0-2.8,0.8-2.8,3.4v7.7h-3.6V18h3L93.2,20.7z"/>
			<path style="fill:#E12726;" d="M112.7,27.4l3.1,1c-0.7,2.8-3.1,3.8-5.8,3.8c-3.9,0-6.5-2.6-6.5-7.1c0-4.7,2.6-7.4,6.6-7.4
				c3.8,0,5.7,2.6,5.7,6.1c0,0.7-0.1,1.3-0.2,1.9h-8.7c0.1,2.3,1.2,3.9,3.2,3.9C111.2,29.4,112.2,29,112.7,27.4z M112.3,23.4
				c0-0.2,0-0.3,0-0.5c0-1.5-0.9-2.6-2.5-2.6c-1.7,0-2.7,1.2-2.9,3.1H112.3z"/>
			<path style="fill:#E12726;" d="M118.5,31.8V14.2h6c4.5,0,6.4,2.1,6.4,5.8s-2.1,5.9-6,5.9h-2.7v6L118.5,31.8L118.5,31.8z
				 M122.1,22.9h2.2c2.1,0,2.8-1,2.8-2.8c0-1.9-0.9-2.9-2.8-2.9h-2.2V22.9z"/>
			<path style="fill:#E12726;" d="M137.9,31.8c-0.8,0.2-1.4,0.3-2.1,0.3c-1.9,0-3.6-0.9-3.6-3.4v-17h3.6v16c0,0.9,0.5,1.2,1.3,1.2
				c0.4,0,0.7-0.1,1.1-0.2L137.9,31.8z"/>
			<path style="fill:#E12726;" d="M150.8,27.9c0,1,0.4,1.3,1,1.3c0.3,0,0.6-0.1,0.8-0.2v2.6c-0.5,0.3-1.2,0.4-2,0.4
				c-1.7,0-2.8-0.7-3.1-2.2c-0.7,1.7-2.2,2.3-4.1,2.3c-2.5,0-4.1-1.4-4.1-3.8c0-3.1,2.5-4.8,7.9-4.5v-1.5c0-1.3-0.7-2.1-1.9-2.1
				c-1.3,0-1.9,0.8-2,2.1l-3.5-0.6c0.2-2.9,2.7-4.2,5.7-4.2c3.2,0,5.3,1.4,5.3,4.5L150.8,27.9L150.8,27.9z M147.2,25.9
				c-3.1-0.1-4.3,0.7-4.3,2.1c0,0.9,0.6,1.6,1.8,1.6s2.6-0.6,2.6-2.1L147.2,25.9L147.2,25.9z"/>
			<path style="fill:#E12726;" d="M156.7,27.5c0.3,1.5,1.4,2.1,2.8,2.1c1.3,0,2.2-0.5,2.2-1.4s-0.5-1.4-1.9-1.7l-2-0.5
				c-2.5-0.6-3.5-2-3.5-4c0-3.4,2.7-4.4,5.5-4.4c3.1,0,5.1,1.1,5.3,3.8l-3.4,0.5c-0.1-1.2-0.8-1.7-2.1-1.7c-1.1,0-1.9,0.5-1.9,1.4
				c0,0.8,0.4,1.3,1.5,1.5l1.9,0.5c2.7,0.6,4,2,4,4.3c0,3.1-2.5,4.2-5.7,4.2c-3.3,0-5.3-1-5.8-3.5L156.7,27.5z"/>
			<path style="fill:#E12726;" d="M176.1,31.3c-1.1,0.6-2.4,0.9-4,0.9c-2.7,0-4.4-1.3-4.4-4.3v-7.1h-2V18h2v-3l3.6-0.4V18h4.1v2.8
				h-4.1v6.4c0,1.5,0.6,2,1.7,2c0.9,0,1.6-0.3,2.4-0.8L176.1,31.3z"/>
			<path style="fill:#E12726;" d="M179.5,11.5c1.3,0,2.3,0.8,2.3,2.2c0,1.3-1,2.1-2.3,2.1c-1.2,0-2.2-0.8-2.2-2.1
				C177.3,12.3,178.3,11.5,179.5,11.5z M181.3,18v13.9h-3.6V18H181.3z"/>
			<path style="fill:#E12726;" d="M195.2,28.2c-0.5,2.8-2.9,4-5.7,4c-3.9,0-6.5-2.6-6.5-7.2s2.6-7.3,6.6-7.3c3.2,0,5.2,1.7,5.4,4.5
				l-3.1,0.8c-0.2-1.6-1-2.4-2.4-2.4c-2,0-3.1,1.7-3.1,4.4s1.2,4.5,3.1,4.5c1.2,0,2.1-0.6,2.5-2.2L195.2,28.2z"/>
			<path style="fill:#E12726;" d="M199.1,27.5c0.3,1.5,1.4,2.1,2.8,2.1c1.3,0,2.2-0.5,2.2-1.4s-0.5-1.4-1.9-1.7l-2-0.5
				c-2.5-0.6-3.5-2-3.5-4c0-3.4,2.7-4.4,5.5-4.4c3.1,0,5.1,1.1,5.3,3.8L204,22c-0.1-1.2-0.8-1.7-2.1-1.7c-1.1,0-1.9,0.5-1.9,1.4
				c0,0.8,0.4,1.3,1.5,1.5l1.9,0.5c2.7,0.6,4,2,4,4.3c0,3.1-2.5,4.2-5.7,4.2c-3.3,0-5.3-1-5.8-3.5L199.1,27.5z"/>
		</g>
		<g>
			<path style="fill:#E12726;" d="M209.4,13.4c1.1,0,2,0.8,2,2c0,1.1-0.9,2-2,2s-2-0.8-2-2C207.5,14.3,208.3,13.4,209.4,13.4z
				 M209.4,17.2c1,0,1.8-0.7,1.8-1.8c0-1-0.8-1.8-1.8-1.8s-1.8,0.7-1.8,1.8S208.5,17.2,209.4,17.2z M209.9,16.5
				c-0.1-0.1-0.1-0.1-0.1-0.3l-0.1-0.3c-0.1-0.2-0.2-0.3-0.4-0.3h-0.1v0.8h-0.5v-2.3h0.9c0.6,0,0.9,0.2,0.9,0.7
				c0,0.4-0.3,0.6-0.6,0.6c0.3,0,0.4,0.1,0.5,0.3l0.1,0.3c0,0.1,0.1,0.2,0.2,0.3L209.9,16.5L209.9,16.5z M209.1,15.3h0.3
				c0.3,0,0.5-0.1,0.5-0.3s-0.1-0.3-0.4-0.3h-0.3v0.6H209.1z"/>
		</g>
	</g>
	<path style="fill:#FFFFFF;" d="M41,22c0,10.4-8.4,18.8-18.8,18.8S3.5,32.3,3.5,22S11.9,3.2,22.3,3.2C32.6,3.2,41,11.6,41,22z"/>
	<g>
		<path style="fill:#E32726;" d="M27.7,20.2c-1.2,0-1.9,0.9-1.9,2.6v1c0,1.6,0.7,2.5,1.8,2.5c1.5,0,2-1.2,2-3.3
			C29.6,21.1,29,20.2,27.7,20.2z"/>
		<path style="fill:#E32726;" d="M22.3,0C10,0,0.1,9.9,0.1,22.2c0,12.2,9.9,22.2,22.2,22.2c12.2,0,22.2-9.9,22.2-22.2S34.5,0,22.3,0
			z M17.1,30.6h-6.7V15.4h6.7V30.6z M13.8,14.5c-1.9,0-3.8-1.1-3.8-3.4s1.8-3.4,3.8-3.4c1.9,0,3.8,1.1,3.8,3.4S15.8,14.5,13.8,14.5z
			 M29.9,31c-1.9,0-3.6-0.9-4.1-2.2v8.5h-6.7V15.4H25l0.8,2.8c0.6-2,2.3-3.2,4.5-3.2c3.9,0,6.1,2.9,6.1,7.6C36.5,28.2,34,31,29.9,31
			z"/>
	</g>
	<g>
		<path style="fill:#E32726;" d="M59.6,14.2v17.7H56V14.2H59.6z"/>
		<path style="fill:#E32726;" d="M65.6,20.7c0.8-2.1,2.3-3,4.4-3c2.2,0,4.1,1.3,4.1,4.3v9.8h-3.6v-8.6c0-1.6-0.5-2.6-2-2.6
			c-1.4,0-2.8,0.8-2.8,3.4v7.7h-3.6V18h3L65.6,20.7z"/>
		<path style="fill:#E32726;" d="M81.9,31.8c-0.8,0.2-1.4,0.3-2.1,0.3c-1.9,0-3.6-0.9-3.6-3.4V11.8h3.6v16c0,0.9,0.5,1.2,1.3,1.2
			c0.4,0,0.7-0.1,1.1-0.2L81.9,31.8z"/>
		<path style="fill:#E32726;" d="M85.7,11.5c1.3,0,2.3,0.8,2.3,2.2c0,1.3-1,2.1-2.3,2.1c-1.2,0-2.2-0.8-2.2-2.1
			C83.5,12.3,84.5,11.5,85.7,11.5z M87.5,18v13.9H84V18H87.5z"/>
		<path style="fill:#E32726;" d="M93.3,20.7c0.8-2.1,2.3-3,4.4-3c2.2,0,4.1,1.3,4.1,4.3v9.8h-3.6v-8.6c0-1.6-0.5-2.6-2-2.6
			c-1.4,0-2.8,0.8-2.8,3.4v7.7h-3.6V18h3L93.3,20.7z"/>
		<path style="fill:#E32726;" d="M112.8,27.4l3.1,1c-0.7,2.8-3.1,3.8-5.8,3.8c-3.9,0-6.5-2.6-6.5-7.1c0-4.7,2.6-7.4,6.6-7.4
			c3.8,0,5.7,2.6,5.7,6.1c0,0.7-0.1,1.3-0.2,1.9H107c0.1,2.3,1.2,3.9,3.2,3.9C111.4,29.4,112.3,29,112.8,27.4z M112.4,23.4
			c0-0.2,0-0.3,0-0.5c0-1.5-0.9-2.6-2.5-2.6c-1.7,0-2.7,1.2-2.9,3.1H112.4z"/>
		<path style="fill:#E32726;" d="M118.6,31.8V14.2h6c4.5,0,6.4,2.1,6.4,5.8s-2.1,5.9-6,5.9h-2.7v6L118.6,31.8L118.6,31.8z
			 M122.2,22.9h2.2c2.1,0,2.8-1,2.8-2.8c0-1.9-0.9-2.9-2.8-2.9h-2.2V22.9z"/>
		<path style="fill:#E32726;" d="M138,31.8c-0.8,0.2-1.4,0.3-2.1,0.3c-1.9,0-3.6-0.9-3.6-3.4V11.8h3.6v16c0,0.9,0.5,1.2,1.3,1.2
			c0.4,0,0.7-0.1,1.1-0.2L138,31.8z"/>
		<path style="fill:#E32726;" d="M150.9,27.9c0,1,0.4,1.3,1,1.3c0.3,0,0.6-0.1,0.8-0.2v2.6c-0.5,0.3-1.2,0.4-2,0.4
			c-1.7,0-2.8-0.7-3.1-2.2c-0.7,1.7-2.2,2.3-4.1,2.3c-2.5,0-4.1-1.4-4.1-3.8c0-3.1,2.5-4.8,7.9-4.5v-1.5c0-1.3-0.7-2.1-1.9-2.1
			c-1.3,0-1.9,0.8-2,2.1l-3.5-0.6c0.2-2.9,2.7-4.2,5.7-4.2c3.2,0,5.3,1.4,5.3,4.5L150.9,27.9L150.9,27.9z M147.3,25.9
			c-3.1-0.1-4.3,0.7-4.3,2.1c0,0.9,0.6,1.6,1.8,1.6s2.6-0.6,2.6-2.1L147.3,25.9L147.3,25.9z"/>
		<path style="fill:#E32726;" d="M156.8,27.5c0.3,1.5,1.4,2.1,2.8,2.1c1.3,0,2.2-0.5,2.2-1.4s-0.5-1.4-1.9-1.7l-2-0.5
			c-2.5-0.6-3.5-2-3.5-4c0-3.4,2.7-4.4,5.5-4.4c3.1,0,5.1,1.1,5.3,3.8l-3.4,0.5c-0.1-1.2-0.8-1.7-2.1-1.7c-1.1,0-1.9,0.5-1.9,1.4
			c0,0.8,0.4,1.3,1.5,1.5l1.9,0.5c2.7,0.6,4,2,4,4.3c0,3.1-2.5,4.2-5.7,4.2c-3.3,0-5.3-1-5.8-3.5L156.8,27.5z"/>
		<path style="fill:#E32726;" d="M176.2,31.3c-1.1,0.6-2.4,0.9-4,0.9c-2.7,0-4.4-1.3-4.4-4.3v-7.1h-2V18h2v-3l3.6-0.4V18h4.1v2.8
			h-4.1v6.4c0,1.5,0.6,2,1.7,2c0.9,0,1.6-0.3,2.4-0.8L176.2,31.3z"/>
		<path style="fill:#E32726;" d="M179.6,11.5c1.3,0,2.3,0.8,2.3,2.2c0,1.3-1,2.1-2.3,2.1c-1.2,0-2.2-0.8-2.2-2.1
			C177.4,12.3,178.4,11.5,179.6,11.5z M181.4,18v13.9h-3.6V18H181.4z"/>
		<path style="fill:#E32726;" d="M195.3,28.2c-0.5,2.8-2.9,4-5.7,4c-3.9,0-6.5-2.6-6.5-7.2s2.6-7.3,6.6-7.3c3.2,0,5.2,1.7,5.4,4.5
			L192,23c-0.2-1.6-1-2.4-2.4-2.4c-2,0-3.1,1.7-3.1,4.4s1.2,4.5,3.1,4.5c1.2,0,2.1-0.6,2.5-2.2L195.3,28.2z"/>
		<path style="fill:#E32726;" d="M199.2,27.5c0.3,1.5,1.4,2.1,2.8,2.1c1.3,0,2.2-0.5,2.2-1.4s-0.5-1.4-1.9-1.7l-2-0.5
			c-2.5-0.6-3.5-2-3.5-4c0-3.4,2.7-4.4,5.5-4.4c3.1,0,5.1,1.1,5.3,3.8l-3.4,0.5c-0.1-1.2-0.8-1.7-2.1-1.7c-1.1,0-1.9,0.5-1.9,1.4
			c0,0.8,0.4,1.3,1.5,1.5l1.9,0.5c2.7,0.6,4,2,4,4.3c0,3.1-2.5,4.2-5.7,4.2c-3.3,0-5.3-1-5.8-3.5L199.2,27.5z"/>
	</g>
</g>
</svg>
