<svg width="66" height="83" viewBox="0 0 66 83" fill="none" xmlns="http://www.w3.org/2000/svg">
<path d="M40.6562 28.9503L43.8242 24.3023C46.5962 20.1855 46.9922 15.0727 44.7482 10.6239C42.6362 6.30795 38.4782 3.51915 33.6602 3.31995C33.1982 3.31995 32.7362 3.31995 32.2742 3.31995C27.4562 3.51915 23.3642 6.30795 21.1862 10.6239C19.0082 15.0727 19.3382 20.2519 22.1102 24.3023L25.2782 28.9503C19.3382 31.8719 15.1802 38.0471 15.1802 45.1519C15.1802 55.0455 23.1662 63.0799 33.0002 63.0799C42.8342 63.0799 50.8202 55.0455 50.8202 45.1519C50.8202 38.0471 46.6622 31.8719 40.6562 28.9503ZM48.1142 43.8239H40.9202C40.7882 39.5079 39.9962 35.2583 38.5442 32.0711L39.1382 31.1415C44.0882 33.3991 47.6522 38.1799 48.1142 43.8239ZM24.3542 22.8415C22.1102 19.5215 21.8462 15.4047 23.6282 11.8191C25.3442 8.36635 28.6442 6.17515 32.4722 5.97595C32.8682 5.97595 33.1982 5.97595 33.5942 5.97595C37.4222 6.17515 40.7222 8.36635 42.4382 11.8191C44.2202 15.4047 43.9562 19.5215 41.7122 22.8415L33.0002 35.5239L24.3542 22.8415ZM38.2802 43.8239H27.7202C27.8522 40.1055 28.4462 37.0511 29.2382 34.7271L31.8782 38.5783C32.1422 38.9103 32.5382 39.1759 33.0002 39.1759C33.4622 39.1759 33.8582 38.9767 34.1222 38.5783L36.7622 34.7271C37.5542 37.0511 38.1482 40.1055 38.2802 43.8239ZM26.8622 31.2079L27.4562 32.1375C26.0702 35.2583 25.2122 39.5079 25.0802 43.8239H17.8862C18.3482 38.1799 21.9122 33.3991 26.8622 31.2079ZM17.8862 46.4799H25.0802C25.2122 51.4599 26.2682 56.4399 28.1822 59.6271C22.5722 57.7679 18.4142 52.6551 17.8862 46.4799ZM33.0002 60.4239C30.8882 60.4239 28.0502 55.1783 27.7202 46.4799H38.2802C37.9502 55.1783 35.1122 60.4239 33.0002 60.4239ZM37.8182 59.6271C39.6662 56.4399 40.7222 51.4599 40.9202 46.4799H48.1142C47.5862 52.6551 43.4282 57.7679 37.8182 59.6271ZM38.9402 16.5999C38.9402 13.2799 36.3002 10.6239 33.0002 10.6239C29.7002 10.6239 27.0602 13.2799 27.0602 16.5999C27.0602 19.9199 29.7002 22.5759 33.0002 22.5759C36.3002 22.5759 38.9402 19.9199 38.9402 16.5999ZM29.7002 16.5999C29.7002 14.7407 31.1522 13.2799 33.0002 13.2799C34.8482 13.2799 36.3002 14.7407 36.3002 16.5999C36.3002 18.4591 34.8482 19.9199 33.0002 19.9199C31.1522 19.9199 29.7002 18.4591 29.7002 16.5999Z" fill="#4894FF"/>
</svg>
