<svg width="14" height="14" viewBox="0 0 14 14" fill="none" xmlns="http://www.w3.org/2000/svg">
<path d="M13.7812 7C13.7812 3.25391 10.7461 0.21875 7 0.21875C3.25391 0.21875 0.21875 3.25391 0.21875 7C0.21875 10.7461 3.25391 13.7812 7 13.7812C10.7461 13.7812 13.7812 10.7461 13.7812 7ZM1.53125 7C1.53125 3.97852 3.97852 1.53125 7 1.53125C10.0215 1.53125 12.4688 3.97852 12.4688 7C12.4688 10.0215 10.0215 12.4688 7 12.4688C3.97852 12.4688 1.53125 10.0215 1.53125 7ZM3.5 7.54688V6.45312C3.5 6.27266 3.64766 6.125 3.82812 6.125H7V4.29297C7 4.00039 7.35273 3.85547 7.56055 4.06055L10.2676 6.76758C10.3961 6.89609 10.3961 7.10391 10.2676 7.23242L7.56055 9.93945C7.35273 10.1473 7 9.99961 7 9.70703V7.875H3.82812C3.64766 7.875 3.5 7.72734 3.5 7.54688Z" fill="currentColor"/>
</svg>
