<svg width="58" height="73" viewBox="0 0 58 73" fill="none" xmlns="http://www.w3.org/2000/svg">
<path d="M53.5919 19.3304L53.5339 19.272C52.9539 18.8048 52.3159 18.4544 51.6199 18.2208V16.936C51.6199 14.7752 50.1119 12.9064 48.1399 12.4392V11.096C48.1399 8.52635 46.0519 6.42395 43.4999 6.42395H14.4999C11.9479 6.42395 9.8599 8.52635 9.8599 11.096V12.4392C7.8879 12.9648 6.3799 14.7752 6.3799 16.936V18.2792C5.6839 18.4544 5.0459 18.8048 4.4659 19.3304C4.4659 19.3304 4.4659 19.3304 4.4079 19.3304C3.4799 20.2064 2.8999 21.4912 2.8999 22.776V47.304C2.8999 48.5888 3.4799 49.8736 4.4079 50.7496L4.4659 50.808C5.3359 51.5672 6.3799 51.976 7.5399 51.976H50.4599C51.5619 51.976 52.6639 51.5672 53.5339 50.808L53.5919 50.7496C54.5199 49.8736 55.0999 48.5888 55.0999 47.304V22.776C55.0999 21.4912 54.5199 20.2064 53.5919 19.3304ZM12.1799 11.096C12.1799 9.81115 13.2239 8.75995 14.4999 8.75995H43.4999C44.7759 8.75995 45.8199 9.81115 45.8199 11.096V12.264H12.1799V11.096ZM8.6999 16.936C8.6999 15.6512 9.7439 14.6 11.0199 14.6H46.9799C48.2559 14.6 49.2999 15.6512 49.2999 16.936V18.104H8.6999V16.936ZM7.5399 20.44H50.4599C50.5179 20.44 50.5759 20.44 50.6339 20.44L33.9299 34.164L28.9999 38.1352L24.0699 34.1056L7.3659 20.44C7.4239 20.44 7.4819 20.44 7.5399 20.44ZM5.2199 47.304V22.776C5.2199 22.484 5.2779 22.1336 5.3939 21.9L21.5179 35.04L5.3939 48.18C5.2779 47.9464 5.2199 47.596 5.2199 47.304ZM50.4599 49.64H7.5399C7.4819 49.64 7.4239 49.64 7.3659 49.64L23.3739 36.5584L28.3039 40.588C28.5359 40.7632 28.7679 40.8216 29.0579 40.8216C29.3479 40.8216 29.5799 40.7632 29.8119 40.588L34.7419 36.5584L50.6339 49.64C50.5759 49.64 50.5179 49.64 50.4599 49.64ZM52.7799 47.304C52.7799 47.596 52.7219 47.9464 52.6059 48.18L36.4819 35.04L52.6059 21.9C52.7219 22.192 52.7799 22.484 52.7799 22.776V47.304Z" fill="#4894FF"/>
</svg>
