<svg width="96" height="146" viewBox="0 0 96 146" fill="none" xmlns="http://www.w3.org/2000/svg">
<g clip-path="url(#clip0)">
<path d="M10.9212 133.618C10.6235 134.733 10.3892 135.898 10.2182 137.114C7.79254 137.038 6.06671 137 5.04071 137C4.02738 137 2.32371 137.038 -0.07029 137.114C-0.171623 137.114 -0.22229 137.025 -0.22229 136.848C-0.22229 136.69 -0.171623 136.604 -0.07029 136.591C0.696043 136.503 1.21538 136.36 1.48771 136.164C1.76638 135.968 1.90571 135.575 1.90571 134.986V126.046C1.90571 125.603 1.84871 125.293 1.73471 125.115C1.62704 124.932 1.43388 124.789 1.15521 124.688C0.876543 124.58 0.468043 124.495 -0.07029 124.431C-0.171623 124.431 -0.22229 124.343 -0.22229 124.165C-0.22229 123.988 -0.171623 123.899 -0.07029 123.899C0.354043 123.899 0.86071 123.918 1.44971 123.956C2.01338 123.994 2.48838 124.013 2.87471 124.013C3.26104 124.013 3.73288 123.994 4.29021 123.956C4.87288 123.918 5.37638 123.899 5.80071 123.899C5.90204 123.899 5.95271 123.988 5.95271 124.165C5.95271 124.343 5.90204 124.431 5.80071 124.431C5.26871 124.495 4.86338 124.58 4.58471 124.688C4.30604 124.789 4.11288 124.929 4.00521 125.106C3.89754 125.283 3.84371 125.597 3.84371 126.046V135.271C3.84371 136.018 4.21104 136.392 4.94571 136.392H6.82671C7.60571 136.392 8.26438 136.186 8.80271 135.774C9.34104 135.356 9.87304 134.581 10.3987 133.447C10.424 133.396 10.4842 133.371 10.5792 133.371C10.6615 133.371 10.7375 133.396 10.8072 133.447C10.8832 133.498 10.9212 133.555 10.9212 133.618Z" fill="white"/>
<path d="M18.3438 137.323C17.9892 137.323 17.6788 137.234 17.4128 137.057C17.1532 136.886 16.9758 136.652 16.8808 136.354C16.2032 137.051 15.3165 137.399 14.2208 137.399C13.6508 137.399 13.1853 137.225 12.8243 136.876C12.4633 136.522 12.2828 136.082 12.2828 135.556C12.2828 134.258 13.8218 133.206 16.8998 132.402L16.9568 130.92V130.872C16.9568 130.416 16.8428 130.055 16.6148 129.789C16.3932 129.517 16.0955 129.381 15.7218 129.381C15.3482 129.381 15.0315 129.473 14.7718 129.656C14.5122 129.834 14.3792 130.059 14.3728 130.331C14.3665 130.736 14.2588 131.053 14.0498 131.281C13.8472 131.509 13.5748 131.623 13.2328 131.623C13.0302 131.623 12.8655 131.563 12.7388 131.442C12.6122 131.322 12.5488 131.161 12.5488 130.958C12.5488 130.47 12.9922 129.96 13.8788 129.428C14.7655 128.89 15.5888 128.621 16.3488 128.621C17.0328 128.621 17.587 128.824 18.0113 129.229C18.4357 129.634 18.6478 130.179 18.6478 130.863V130.977L18.5148 135.271V135.337C18.5148 136.002 18.7302 136.335 19.1608 136.335C19.3698 136.335 19.6137 136.208 19.8923 135.955L19.9588 135.936C20.0095 135.936 20.057 135.971 20.1013 136.04C20.1457 136.104 20.1678 136.173 20.1678 136.249C20.1678 136.433 19.9747 136.658 19.5883 136.924C19.2083 137.19 18.7935 137.323 18.3438 137.323ZM16.8808 133.048C15.0315 133.466 14.1068 134.156 14.1068 135.119C14.1068 136.018 14.4552 136.468 15.1518 136.468C15.4875 136.468 15.8168 136.386 16.1398 136.221C16.4692 136.05 16.6908 135.841 16.8048 135.594L16.8808 133.048Z" fill="white"/>
<path d="M30.9178 136.848C30.9178 137.025 30.8672 137.114 30.7658 137.114C30.5125 137.114 30.2022 137.095 29.8348 137.057C29.4295 137.019 29.0717 137 28.7613 137C28.4447 137 28.0805 137.019 27.6688 137.057C27.2952 137.095 26.9817 137.114 26.7283 137.114C26.627 137.114 26.5763 137.025 26.5763 136.848C26.5763 136.69 26.627 136.604 26.7283 136.591C27.1653 136.541 27.4503 136.417 27.5833 136.221C27.7227 136.025 27.7923 135.613 27.7923 134.986V131.813C27.7923 131.104 27.653 130.584 27.3743 130.255C27.0957 129.926 26.665 129.761 26.0823 129.761C25.715 129.761 25.3888 129.831 25.1038 129.97C24.8252 130.109 24.5243 130.356 24.2013 130.711V134.986C24.2013 135.613 24.2678 136.025 24.4008 136.221C24.5402 136.417 24.8283 136.541 25.2653 136.591C25.3667 136.604 25.4173 136.69 25.4173 136.848C25.4173 137.025 25.3667 137.114 25.2653 137.114C25.0057 137.114 24.689 137.095 24.3153 137.057C23.9037 137.019 23.5427 137 23.2323 137C22.9283 137 22.5737 137.019 22.1683 137.057C21.7947 137.095 21.478 137.114 21.2183 137.114C21.117 137.114 21.0663 137.025 21.0663 136.848C21.0663 136.69 21.117 136.604 21.2183 136.591C21.763 136.522 22.1145 136.392 22.2728 136.202C22.4312 136.006 22.5103 135.6 22.5103 134.986V131.471C22.5103 130.964 22.4438 130.632 22.3108 130.473C22.1842 130.315 21.896 130.211 21.4463 130.16C21.345 130.16 21.2943 130.078 21.2943 129.913C21.2943 129.761 21.345 129.685 21.4463 129.685C22.0733 129.527 22.5958 129.349 23.0138 129.153C23.4318 128.95 23.6947 128.786 23.8023 128.659C23.8657 128.583 23.9353 128.545 24.0113 128.545C24.1887 128.545 24.2773 128.596 24.2773 128.697L24.2013 129.894C25.1133 129.045 25.962 128.621 26.7473 128.621C27.6087 128.621 28.28 128.868 28.7613 129.362C29.249 129.856 29.4928 130.521 29.4928 131.357V134.986C29.4928 135.607 29.5688 136.012 29.7208 136.202C29.8792 136.392 30.2275 136.522 30.7658 136.591C30.8672 136.604 30.9178 136.69 30.9178 136.848Z" fill="white"/>
<path d="M39.5885 130.122C39.5885 130.641 39.3288 130.901 38.8095 130.901C38.5878 130.901 38.4042 130.853 38.2585 130.758C38.1192 130.663 37.9767 130.458 37.831 130.141C37.66 129.767 37.4763 129.523 37.28 129.409C37.09 129.289 36.8398 129.229 36.5295 129.229C35.7632 129.229 35.1773 129.549 34.772 130.188C34.373 130.822 34.1735 131.75 34.1735 132.972C34.1735 133.992 34.4268 134.815 34.9335 135.442C35.4402 136.063 36.1178 136.373 36.9665 136.373C37.9292 136.373 38.6923 136.072 39.256 135.47L39.3035 135.451C39.3605 135.451 39.4143 135.489 39.465 135.565C39.522 135.635 39.5505 135.714 39.5505 135.803C39.5505 135.93 39.3637 136.148 38.99 136.458C38.6227 136.769 38.2173 137.003 37.774 137.161C37.337 137.32 36.8715 137.399 36.3775 137.399C35.2438 137.399 34.2717 136.984 33.461 136.154C32.6567 135.318 32.2545 134.264 32.2545 132.991C32.2545 131.731 32.6757 130.689 33.518 129.865C34.3667 129.036 35.3705 128.621 36.5295 128.621C37.3845 128.621 38.1065 128.77 38.6955 129.067C39.2908 129.359 39.5885 129.71 39.5885 130.122Z" fill="white"/>
<path d="M47.7189 137.323C47.3642 137.323 47.0539 137.234 46.7879 137.057C46.5282 136.886 46.3509 136.652 46.2559 136.354C45.5782 137.051 44.6915 137.399 43.5959 137.399C43.0259 137.399 42.5604 137.225 42.1994 136.876C41.8384 136.522 41.6579 136.082 41.6579 135.556C41.6579 134.258 43.1969 133.206 46.2749 132.402L46.3319 130.92V130.872C46.3319 130.416 46.2179 130.055 45.9899 129.789C45.7682 129.517 45.4705 129.381 45.0969 129.381C44.7232 129.381 44.4065 129.473 44.1469 129.656C43.8872 129.834 43.7542 130.059 43.7479 130.331C43.7415 130.736 43.6339 131.053 43.4249 131.281C43.2222 131.509 42.9499 131.623 42.6079 131.623C42.4052 131.623 42.2405 131.563 42.1139 131.442C41.9872 131.322 41.9239 131.161 41.9239 130.958C41.9239 130.47 42.3672 129.96 43.2539 129.428C44.1405 128.89 44.9639 128.621 45.7239 128.621C46.4079 128.621 46.962 128.824 47.3864 129.229C47.8107 129.634 48.0229 130.179 48.0229 130.863V130.977L47.8899 135.271V135.337C47.8899 136.002 48.1052 136.335 48.5359 136.335C48.7449 136.335 48.9887 136.208 49.2674 135.955L49.3339 135.936C49.3845 135.936 49.432 135.971 49.4764 136.04C49.5207 136.104 49.5429 136.173 49.5429 136.249C49.5429 136.433 49.3497 136.658 48.9634 136.924C48.5834 137.19 48.1685 137.323 47.7189 137.323ZM46.2559 133.048C44.4065 133.466 43.4819 134.156 43.4819 135.119C43.4819 136.018 43.8302 136.468 44.5269 136.468C44.8625 136.468 45.1919 136.386 45.5149 136.221C45.8442 136.05 46.0659 135.841 46.1799 135.594L46.2559 133.048Z" fill="white"/>
<path d="M64.2449 133.295C64.2449 134.555 63.8712 135.559 63.1239 136.306C62.3765 137.047 61.3664 137.418 60.0934 137.418C59.5297 137.418 58.8552 137.317 58.0699 137.114C57.3542 136.924 56.7684 136.829 56.3124 136.829C56.2744 135.752 56.1984 134.676 56.0844 133.599C56.0844 133.498 56.1794 133.447 56.3694 133.447C56.5024 133.447 56.5847 133.498 56.6164 133.599C56.9584 134.777 57.3954 135.607 57.9274 136.088C58.4594 136.569 59.2067 136.81 60.1694 136.81C60.9357 136.81 61.5279 136.588 61.9459 136.145C62.3702 135.702 62.5824 135.081 62.5824 134.283C62.5824 133.77 62.3987 133.295 62.0314 132.858C61.664 132.415 60.8819 131.845 59.6849 131.148C58.3105 130.356 57.4112 129.685 56.9869 129.134C56.5625 128.583 56.3504 127.972 56.3504 127.3C56.3504 126.268 56.7304 125.397 57.4904 124.688C58.2567 123.972 59.2257 123.614 60.3974 123.614C60.8407 123.614 61.3505 123.675 61.9269 123.795C62.4652 123.903 62.9307 123.956 63.3234 123.956C63.3994 125.071 63.5007 126.053 63.6274 126.901C63.6274 127.003 63.545 127.053 63.3804 127.053C63.203 127.053 63.1049 127.003 63.0859 126.901C62.8769 125.951 62.5602 125.267 62.1359 124.849C61.7115 124.431 61.1257 124.222 60.3784 124.222C59.669 124.222 59.1054 124.431 58.6874 124.849C58.2694 125.267 58.0604 125.831 58.0604 126.54C58.0604 126.99 58.2345 127.421 58.5829 127.832C58.9375 128.238 59.7007 128.782 60.8724 129.466C62.2594 130.277 63.1682 130.955 63.5989 131.499C64.0295 132.044 64.2449 132.643 64.2449 133.295Z" fill="white"/>
<path d="M72.2882 137.323C71.9336 137.323 71.6232 137.234 71.3572 137.057C71.0976 136.886 70.9202 136.652 70.8252 136.354C70.1476 137.051 69.2609 137.399 68.1652 137.399C67.5952 137.399 67.1297 137.225 66.7687 136.876C66.4077 136.522 66.2272 136.082 66.2272 135.556C66.2272 134.258 67.7662 133.206 70.8442 132.402L70.9012 130.92V130.872C70.9012 130.416 70.7872 130.055 70.5592 129.789C70.3376 129.517 70.0399 129.381 69.6662 129.381C69.2926 129.381 68.9759 129.473 68.7162 129.656C68.4566 129.834 68.3236 130.059 68.3172 130.331C68.3109 130.736 68.2032 131.053 67.9942 131.281C67.7916 131.509 67.5192 131.623 67.1772 131.623C66.9746 131.623 66.8099 131.563 66.6832 131.442C66.5566 131.322 66.4932 131.161 66.4932 130.958C66.4932 130.47 66.9366 129.96 67.8232 129.428C68.7099 128.89 69.5332 128.621 70.2932 128.621C70.9772 128.621 71.5314 128.824 71.9557 129.229C72.3801 129.634 72.5922 130.179 72.5922 130.863V130.977L72.4592 135.271V135.337C72.4592 136.002 72.6746 136.335 73.1052 136.335C73.3142 136.335 73.5581 136.208 73.8367 135.955L73.9032 135.936C73.9539 135.936 74.0014 135.971 74.0457 136.04C74.0901 136.104 74.1122 136.173 74.1122 136.249C74.1122 136.433 73.9191 136.658 73.5327 136.924C73.1527 137.19 72.7379 137.323 72.2882 137.323ZM70.8252 133.048C68.9759 133.466 68.0512 134.156 68.0512 135.119C68.0512 136.018 68.3996 136.468 69.0962 136.468C69.4319 136.468 69.7612 136.386 70.0842 136.221C70.4136 136.05 70.6352 135.841 70.7492 135.594L70.8252 133.048Z" fill="white"/>
<path d="M79.3997 136.829C79.3997 137.006 79.3491 137.095 79.2477 137.095C78.9881 137.095 78.6556 137.079 78.2502 137.047C77.7942 137.016 77.4111 137 77.1007 137C76.7967 137 76.4199 137.016 75.9702 137.047C75.5649 137.079 75.2324 137.095 74.9727 137.095C74.8714 137.095 74.8207 137.006 74.8207 136.829C74.8207 136.671 74.8714 136.585 74.9727 136.572C75.5111 136.509 75.8594 136.382 76.0177 136.192C76.1824 135.996 76.2647 135.588 76.2647 134.967V126.141C76.2647 125.628 76.2014 125.293 76.0747 125.134C75.9481 124.976 75.6567 124.872 75.2007 124.821C75.0994 124.808 75.0487 124.729 75.0487 124.583C75.0487 124.431 75.0994 124.355 75.2007 124.355C75.8657 124.184 76.4104 124.004 76.8347 123.814C77.2591 123.618 77.5251 123.453 77.6327 123.32C77.6961 123.25 77.7657 123.215 77.8417 123.215C78.0191 123.215 78.1077 123.266 78.1077 123.367C78.0064 124.786 77.9557 125.888 77.9557 126.673V134.967C77.9557 135.588 78.0349 135.996 78.1932 136.192C78.3516 136.382 78.7031 136.509 79.2477 136.572C79.3491 136.585 79.3997 136.671 79.3997 136.829Z" fill="white"/>
<path d="M88.2307 131.718C88.2307 131.895 88.1167 131.984 87.8887 131.984H82.6827C82.6447 132.326 82.6257 132.681 82.6257 133.048C82.6257 134.068 82.8664 134.853 83.3477 135.404C83.8354 135.949 84.5257 136.221 85.4187 136.221C85.8684 136.221 86.3212 136.101 86.7772 135.86C87.2332 135.619 87.6006 135.312 87.8792 134.938L87.9267 134.919C87.9837 134.919 88.0376 134.954 88.0882 135.024C88.1452 135.094 88.1737 135.176 88.1737 135.271C88.1737 135.404 87.9711 135.683 87.5657 136.107C87.1604 136.525 86.7202 136.845 86.2452 137.066C85.7702 137.288 85.2731 137.399 84.7537 137.399C83.6137 137.399 82.6542 136.981 81.8752 136.145C81.0962 135.309 80.7067 134.283 80.7067 133.067C80.7067 131.826 81.0867 130.774 81.8467 129.913C82.6131 129.052 83.5821 128.621 84.7537 128.621C85.7354 128.621 86.5587 128.944 87.2237 129.59C87.8951 130.23 88.2307 130.939 88.2307 131.718ZM86.5017 130.882C86.5017 130.407 86.3371 130.014 86.0077 129.704C85.6847 129.387 85.2667 129.229 84.7537 129.229C84.2661 129.229 83.8417 129.435 83.4807 129.846C83.1261 130.252 82.8854 130.787 82.7587 131.452L85.3997 131.376C85.7987 131.37 86.0806 131.332 86.2452 131.262C86.4162 131.192 86.5017 131.066 86.5017 130.882Z" fill="white"/>
<path d="M96.1494 134.663C96.1494 135.436 95.8454 136.085 95.2374 136.61C94.6294 137.136 93.8948 137.399 93.0334 137.399C92.7294 137.399 92.2607 137.332 91.6274 137.199C91.1524 137.104 90.8294 137.057 90.6584 137.057C90.6077 136.614 90.4906 135.939 90.3069 135.033C90.3069 134.938 90.3988 134.891 90.5824 134.891C90.7344 134.891 90.8262 134.942 90.8579 135.043C91.0036 135.512 91.2918 135.92 91.7224 136.268C92.1531 136.617 92.5964 136.791 93.0524 136.791C93.5274 136.791 93.8948 136.661 94.1544 136.401C94.4204 136.142 94.5534 135.778 94.5534 135.309C94.5534 135.011 94.4426 134.748 94.2209 134.52C94.0056 134.292 93.5338 134.011 92.8054 133.675C91.8491 133.238 91.2158 132.826 90.9054 132.44C90.6014 132.054 90.4494 131.591 90.4494 131.053C90.4494 130.388 90.7376 129.818 91.3139 129.343C91.8903 128.862 92.5711 128.621 93.3564 128.621C93.6858 128.621 94.1481 128.678 94.7434 128.792C95.0728 128.855 95.2881 128.887 95.3894 128.887C95.4084 129.634 95.4496 130.271 95.5129 130.796C95.5129 130.891 95.4211 130.939 95.2374 130.939C95.0791 130.939 94.9904 130.888 94.9714 130.787C94.9018 130.325 94.7276 129.951 94.4489 129.666C94.1703 129.375 93.8378 129.229 93.4514 129.229C92.4634 129.229 91.9694 129.66 91.9694 130.521C91.9694 130.812 92.0866 131.081 92.3209 131.328C92.5553 131.575 93.0651 131.895 93.8504 132.288C94.7878 132.757 95.4053 133.162 95.7029 133.504C96.0006 133.846 96.1494 134.232 96.1494 134.663Z" fill="white"/>
<path d="M17.2111 48.2864C17.2111 48.2864 21.1134 44.6914 27.3344 45.9633C27.1144 45.1835 26.8165 44.4226 26.4219 43.702C26.4219 43.702 30.8771 41.3573 38.7916 41.0669C39.2344 41.0507 39.5806 41.0669 39.9269 41.0991C42.0122 40.3409 51.1881 36.9126 60.4258 35.6327C66.3972 34.8045 69.8862 35.9796 70.7906 36.3372C72.2345 36.9072 74.2474 38.1172 75.4551 40.4726C76.6628 42.8281 76.856 45.3475 76.899 45.7482C76.958 46.3074 76.3944 46.4284 76.1797 45.9041C76.0133 45.5008 74.5587 42.6856 73.0155 41.3062C71.4723 39.9268 69.4756 38.8916 65.9517 38.5555C62.4279 38.2194 56.2256 38.4721 53.9175 38.7222C49.5215 39.1954 46.1828 40.0962 42.9783 41.0427C42.5999 41.1556 41.988 41.3384 41.3922 41.5132C46.0513 47.6519 40.9091 54.0379 40.9091 54.0379C40.9091 54.0379 43.6735 47.6868 40.3294 43.1212C39.2344 42.9329 38.0428 42.8254 36.7304 42.8684C33.789 42.9625 30.6865 43.5648 29.2319 43.8848C30.7831 53.4544 26.4112 58.1438 26.4112 58.1438C26.4112 58.1438 28.357 52.9704 27.7236 47.9208C24.3071 45.6003 19.7097 47.7621 18.714 48.2784C19.232 55.4522 15.1446 61.1822 15.1446 61.1822C15.1446 61.1822 17.5466 53.933 17.2111 48.2864ZM21.1053 32.4088C21.1053 32.4088 25.0103 28.8111 31.234 30.0856C31.0112 28.9724 30.6114 27.8054 29.9619 26.6277C29.9619 26.6277 34.417 24.283 42.3315 23.9926C43.0508 23.9658 43.7862 23.99 44.5323 24.0545C44.331 23.3177 44.0545 22.5756 43.6922 21.8443C43.6922 21.8443 47.1705 19.8464 55.085 19.556C56.4296 19.5076 57.9352 19.4646 59.4838 19.4996C60.0071 14.9635 57.1515 10.137 57.1515 10.137C57.1515 10.137 61.4617 13.8933 61.9529 19.6286C64.1777 19.8195 66.3543 20.239 68.131 21.0887C70.686 22.3148 71.059 24.6756 71.059 24.6756C71.059 24.6756 71.3623 25.536 70.9919 25.7135C70.6216 25.891 70.4498 25.4554 69.7413 24.7939C67.8653 23.0435 65.8444 22.2852 64.6554 22.0352C61.2685 21.3199 57.1649 21.0645 53.8746 21.1694C51.1398 21.2554 48.3218 21.7152 46.7974 21.9975C46.8994 32.8551 43.872 34.0705 43.872 34.0705C43.872 34.0705 45.3669 30.4835 44.9375 26.2647C43.5554 25.9501 42.0202 25.7404 40.2677 25.7969C37.286 25.891 34.1379 26.5121 32.7074 26.8267C33.7997 36.7378 30.249 38.0392 30.249 38.0392C30.249 38.0392 31.6151 35.4472 31.4568 31.9436C28.0564 29.7952 23.5852 31.8952 22.6056 32.4061C23.1316 39.502 19.3125 42.6775 19.3125 42.6775C19.3125 42.6775 21.4408 38.0554 21.1053 32.4088ZM33.585 21.9895C33.585 21.9895 36.0139 17.448 33.2898 12.2235C33.2898 12.2235 36.9237 9.51048 43.8345 9.06413C43.7379 4.43392 40.0664 0 40.0664 0C40.0664 0 45.1522 3.18629 46.3868 9.03724C51.0378 9.30344 54.2879 11.3308 55.3185 12.2343C55.8418 12.6941 56.027 13.1996 55.7023 13.5357C55.4124 13.8368 54.8542 13.4604 54.4838 13.2157C54.1591 12.9979 51.8269 10.8899 44.7148 10.8899C40.2677 10.8899 37.4765 11.6562 36.0085 12.2289C37.023 20.6504 33.585 21.9895 33.585 21.9895ZM36.1588 60.9886C45.6434 57.5953 53.4908 55.6082 60.882 55.0704C68.3994 54.5246 71.6843 54.8661 75.0659 55.7131C76.9204 56.1782 78.7615 57.2188 80.2725 59.6092C81.7835 61.9969 81.7298 64.7745 81.7808 65.1805C81.8533 65.7479 81.1501 65.8716 80.8818 65.3392C80.6751 64.9278 79.5479 62.1421 77.6156 60.7439C75.6832 59.3457 73.402 58.1734 68.9925 57.8319C64.583 57.4904 59.677 57.4581 55.4849 57.9663C52.691 58.3051 42.9837 59.9883 38.0375 61.685L38.3354 61.8248C49.9053 67.4472 41.0997 86.1025 39.892 88.5305C44.0411 87.6432 47.9971 86.8446 51.3626 86.1858C60.152 84.465 65.2539 86.3257 67.2373 87.3501C74.0005 83.2953 88.4635 75.4062 88.4635 75.4062C88.4635 75.4062 89.8484 74.6399 89.996 74.8604C90.2348 75.218 72.4009 86.7209 68.2732 89.5469C65.5062 91.4426 63.0613 93.9647 62.3527 96.3578C68.7509 96.7961 70.6216 101.031 70.6216 101.031C71.4374 102.908 70.219 103.115 69.4138 102.51C68.6087 101.905 66.9689 100.351 62.9808 99.4553C59.3388 98.6379 52.5676 99.329 42.0336 102.219L38.1207 103.271C37.8496 103.317 37.9677 103.206 38.2387 103.096C39.4921 102.591 41.7814 101.684 44.5054 100.698C44.0062 100.017 42.4389 98.318 39.2398 98.361C35.0611 98.4174 26.4998 100.426 12.8499 105.339L11.406 105.863C10.2413 106.229 11.1645 105.755 11.4356 105.621C15.0077 103.959 22.3184 100.673 27.4149 99.1596C34.3955 97.0865 43.1421 93.5291 47.2134 99.1327L47.5703 99.6221C51.5746 98.2615 55.9814 96.9574 59.2905 96.4976C59.6421 95.3306 60.7317 92.389 63.2518 90.0766C60.2916 87.2748 51.6068 88.6166 37.8174 91.1602C23.5932 93.7819 9.09528 97.8501 9.02818 97.3123C9.02818 97.3123 9.00671 97.3258 9.00671 97.2478C9.00671 96.9789 11.6503 96.0002 11.6503 96.0002C12.9949 95.4839 14.5407 94.9569 16.2342 94.4299C21.8487 71.4348 10.4855 70.2678 10.4855 70.2678C10.4855 70.2678 15.6411 61.5882 24.2749 64.6293C26.2609 62.6449 30.5389 59.4076 36.1588 60.9886ZM38.3488 88.8639L38.6869 87.9578C44.7792 70.1065 39.4035 64.9547 36.191 63.543C31.6205 61.5344 27.6833 64.4142 26.3602 65.5731C36.3735 71.252 29.5808 87.6002 27.898 91.2597C31.3306 90.4235 34.8893 89.6168 38.3488 88.8639ZM26.2877 91.6604L26.4756 91.1602C33.6709 73.2283 27.1627 68.2404 23.9502 66.8288C18.3168 64.355 14.1301 69.2972 14.1301 69.2972C14.1301 69.2972 24.3554 72.0855 17.5922 94.0158C20.2411 93.2226 23.196 92.4321 26.2877 91.6604Z" fill="white"/>
</g>
<defs>
<clipPath id="clip0">
<rect width="96" height="146" fill="white"/>
</clipPath>
</defs>
</svg>
