<svg viewBox="0 0 173 242" fill="none" xmlns="http://www.w3.org/2000/svg"><g filter="url(#filter0_d)"><path d="M14 0h145v224l-72.5-34.5L14 224V0z" fill="#0D3369"/></g><g clip-path="url(#clip0)" fill="#fff"><path d="M48.921 149.618a29.43 29.43 0 00-.703 3.496c-2.426-.076-4.151-.114-5.177-.114-1.014 0-2.717.038-5.111.114-.102 0-.152-.089-.152-.266 0-.158.05-.244.152-.257.766-.088 1.285-.231 1.558-.427.278-.196.418-.589.418-1.178v-8.94c0-.443-.057-.753-.171-.931-.108-.183-.301-.326-.58-.427-.279-.108-.687-.193-1.225-.257-.102 0-.152-.088-.152-.266 0-.177.05-.266.152-.266.424 0 .93.019 1.52.057.563.038 1.038.057 1.425.057.386 0 .858-.019 1.415-.057a23.657 23.657 0 011.51-.057c.102 0 .153.089.153.266 0 .178-.051.266-.152.266-.532.064-.938.149-1.216.257-.279.101-.472.241-.58.418-.108.177-.161.491-.161.94v9.225c0 .747.367 1.121 1.102 1.121h1.88c.78 0 1.438-.206 1.977-.618.538-.418 1.07-1.193 1.596-2.327.025-.051.085-.076.18-.076.082 0 .158.025.228.076.076.051.114.108.114.171zM56.344 153.323c-.355 0-.665-.089-.931-.266a1.285 1.285 0 01-.532-.703c-.678.697-1.565 1.045-2.66 1.045-.57 0-1.036-.174-1.397-.523a1.774 1.774 0 01-.541-1.32c0-1.298 1.539-2.35 4.617-3.154l.057-1.482v-.048c0-.456-.114-.817-.342-1.083-.222-.272-.52-.408-.893-.408-.374 0-.69.092-.95.275-.26.178-.393.403-.4.675-.005.405-.113.722-.322.95-.203.228-.475.342-.817.342a.685.685 0 01-.494-.181.635.635 0 01-.19-.484c0-.488.443-.998 1.33-1.53.887-.538 1.71-.807 2.47-.807.684 0 1.238.203 1.662.608.425.405.637.95.637 1.634v.114l-.133 4.294v.066c0 .665.215.998.646.998.209 0 .453-.127.731-.38l.067-.019c.05 0 .098.035.142.104a.358.358 0 01.067.209c0 .184-.193.409-.58.675-.38.266-.794.399-1.244.399zm-1.463-4.275c-1.85.418-2.774 1.108-2.774 2.071 0 .899.348 1.349 1.045 1.349.335 0 .665-.082.988-.247.33-.171.55-.38.665-.627l.076-2.546zM68.918 152.848c0 .177-.05.266-.152.266-.254 0-.564-.019-.931-.057A11.656 11.656 0 0066.76 153c-.316 0-.68.019-1.092.057a9.567 9.567 0 01-.94.057c-.102 0-.153-.089-.153-.266 0-.158.051-.244.152-.257.437-.05.722-.174.855-.37.14-.196.21-.608.21-1.235v-3.173c0-.709-.14-1.229-.419-1.558-.278-.329-.709-.494-1.292-.494-.367 0-.693.07-.978.209-.279.139-.58.386-.903.741v4.275c0 .627.067 1.039.2 1.235.14.196.427.32.864.37.102.013.152.099.152.257 0 .177-.05.266-.152.266-.26 0-.576-.019-.95-.057a11.96 11.96 0 00-1.083-.057c-.304 0-.658.019-1.064.057a9.63 9.63 0 01-.95.057c-.101 0-.152-.089-.152-.266 0-.158.051-.244.152-.257.545-.069.896-.199 1.055-.389.158-.196.237-.602.237-1.216v-3.515c0-.507-.066-.839-.2-.998-.126-.158-.414-.262-.864-.313-.101 0-.152-.082-.152-.247 0-.152.051-.228.152-.228a8.811 8.811 0 001.568-.532c.418-.203.68-.367.788-.494.064-.076.133-.114.21-.114.177 0 .265.051.265.152l-.076 1.197c.912-.849 1.761-1.273 2.546-1.273.862 0 1.533.247 2.014.741.488.494.732 1.159.732 1.995v3.629c0 .621.076 1.026.228 1.216.158.19.507.32 1.045.389.101.013.152.099.152.257zM77.588 146.122c0 .519-.26.779-.778.779a.99.99 0 01-.552-.143c-.139-.095-.281-.3-.427-.617-.171-.374-.355-.618-.551-.732-.19-.12-.44-.18-.75-.18-.767 0-1.353.32-1.758.959-.399.634-.599 1.562-.599 2.784 0 1.02.254 1.843.76 2.47.507.621 1.185.931 2.033.931.963 0 1.726-.301 2.29-.903l.047-.019c.058 0 .111.038.162.114.057.07.085.149.085.238 0 .127-.186.345-.56.655a3.889 3.889 0 01-1.216.703 4.052 4.052 0 01-1.397.238c-1.133 0-2.105-.415-2.916-1.245-.804-.836-1.207-1.89-1.207-3.163 0-1.26.422-2.302 1.264-3.126.849-.829 1.853-1.244 3.011-1.244.856 0 1.578.149 2.166.446.596.292.894.643.894 1.055zM85.719 153.323c-.355 0-.665-.089-.931-.266a1.285 1.285 0 01-.532-.703c-.678.697-1.564 1.045-2.66 1.045-.57 0-1.036-.174-1.397-.523a1.774 1.774 0 01-.541-1.32c0-1.298 1.539-2.35 4.617-3.154l.057-1.482v-.048c0-.456-.114-.817-.342-1.083-.222-.272-.52-.408-.893-.408-.374 0-.69.092-.95.275-.26.178-.393.403-.4.675-.005.405-.113.722-.322.95-.203.228-.475.342-.817.342a.685.685 0 01-.494-.181.635.635 0 01-.19-.484c0-.488.443-.998 1.33-1.53.886-.538 1.71-.807 2.47-.807.684 0 1.238.203 1.662.608.425.405.637.95.637 1.634v.114l-.133 4.294v.066c0 .665.215.998.646.998.209 0 .453-.127.731-.38l.067-.019c.05 0 .098.035.142.104a.358.358 0 01.067.209c0 .184-.193.409-.58.675-.38.266-.794.399-1.244.399zm-1.463-4.275c-1.85.418-2.774 1.108-2.774 2.071 0 .899.348 1.349 1.045 1.349.335 0 .665-.082.988-.247.33-.171.55-.38.665-.627l.076-2.546zM102.245 149.295c0 1.26-.374 2.264-1.121 3.011-.747.741-1.758 1.112-3.03 1.112-.564 0-1.239-.101-2.024-.304-.716-.19-1.302-.285-1.758-.285a46.115 46.115 0 00-.228-3.23c0-.101.095-.152.285-.152.133 0 .216.051.247.152.342 1.178.78 2.008 1.311 2.489.532.481 1.28.722 2.242.722.767 0 1.359-.222 1.777-.665.424-.443.636-1.064.636-1.862 0-.513-.183-.988-.551-1.425-.367-.443-1.15-1.013-2.346-1.71-1.374-.792-2.274-1.463-2.698-2.014a2.933 2.933 0 01-.637-1.834c0-1.032.38-1.903 1.14-2.612.767-.716 1.736-1.074 2.907-1.074.444 0 .953.061 1.53.181a7.236 7.236 0 001.396.161 37.72 37.72 0 00.304 2.945c0 .102-.082.152-.247.152-.177 0-.275-.05-.294-.152-.209-.95-.526-1.634-.95-2.052-.424-.418-1.01-.627-1.758-.627-.709 0-1.273.209-1.69.627-.419.418-.628.982-.628 1.691 0 .45.174.881.523 1.292.355.406 1.118.95 2.29 1.634 1.386.811 2.295 1.489 2.726 2.033.431.545.646 1.144.646 1.796zM110.288 153.323c-.354 0-.665-.089-.931-.266a1.288 1.288 0 01-.532-.703c-.677.697-1.564 1.045-2.66 1.045-.57 0-1.035-.174-1.396-.523a1.775 1.775 0 01-.542-1.32c0-1.298 1.539-2.35 4.617-3.154l.057-1.482v-.048c0-.456-.114-.817-.342-1.083-.221-.272-.519-.408-.893-.408-.373 0-.69.092-.95.275-.259.178-.392.403-.399.675-.006.405-.114.722-.323.95-.202.228-.475.342-.817.342a.687.687 0 01-.494-.181.637.637 0 01-.19-.484c0-.488.444-.998 1.33-1.53.887-.538 1.71-.807 2.47-.807.684 0 1.238.203 1.663.608.424.405.636.95.636 1.634v.114l-.133 4.294v.066c0 .665.216.998.646.998.209 0 .453-.127.732-.38l.066-.019c.051 0 .098.035.143.104a.36.36 0 01.066.209c0 .184-.193.409-.579.675-.38.266-.795.399-1.245.399zm-1.463-4.275c-1.849.418-2.774 1.108-2.774 2.071 0 .899.349 1.349 1.045 1.349.336 0 .665-.082.988-.247.33-.171.551-.38.665-.627l.076-2.546zM117.4 152.829c0 .177-.051.266-.152.266-.26 0-.592-.016-.998-.048a17.47 17.47 0 00-1.149-.047c-.304 0-.681.016-1.131.047-.405.032-.738.048-.997.048-.102 0-.152-.089-.152-.266 0-.158.05-.244.152-.257.538-.063.886-.19 1.045-.38.164-.196.247-.604.247-1.225v-8.826c0-.513-.064-.848-.19-1.007-.127-.158-.418-.262-.874-.313-.102-.013-.152-.092-.152-.238 0-.152.05-.228.152-.228.665-.171 1.209-.351 1.634-.541.424-.196.69-.361.798-.494a.278.278 0 01.209-.105c.177 0 .266.051.266.152-.102 1.419-.152 2.521-.152 3.306v8.294c0 .621.079 1.029.237 1.225.159.19.51.317 1.055.38.101.013.152.099.152.257zM126.231 147.718c0 .177-.114.266-.342.266h-5.206a9.639 9.639 0 00-.057 1.064c0 1.02.24 1.805.722 2.356.487.545 1.178.817 2.071.817.449 0 .902-.12 1.358-.361a3.22 3.22 0 001.102-.922l.048-.019c.057 0 .111.035.161.105.057.07.086.152.086.247 0 .133-.203.412-.608.836a4.476 4.476 0 01-1.321.959 3.481 3.481 0 01-1.491.333c-1.14 0-2.1-.418-2.879-1.254-.779-.836-1.168-1.862-1.168-3.078 0-1.241.38-2.293 1.14-3.154.766-.861 1.735-1.292 2.907-1.292.981 0 1.805.323 2.47.969.671.64 1.007 1.349 1.007 2.128zm-1.729-.836c0-.475-.165-.868-.494-1.178-.323-.317-.741-.475-1.254-.475-.488 0-.912.206-1.273.617-.355.406-.596.941-.722 1.606l2.641-.076c.399-.006.681-.044.845-.114a.38.38 0 00.257-.38zM134.149 150.663c0 .773-.304 1.422-.912 1.947-.608.526-1.342.789-2.204.789-.304 0-.772-.067-1.406-.2-.475-.095-.798-.142-.969-.142-.05-.443-.167-1.118-.351-2.024 0-.095.092-.142.275-.142.152 0 .244.051.276.152.146.469.434.877.864 1.225.431.349.874.523 1.33.523.475 0 .843-.13 1.102-.39.266-.259.399-.623.399-1.092 0-.298-.11-.561-.332-.789-.215-.228-.687-.509-1.416-.845-.956-.437-1.589-.849-1.9-1.235-.304-.386-.456-.849-.456-1.387 0-.665.289-1.235.865-1.71.576-.481 1.257-.722 2.042-.722.33 0 .792.057 1.387.171.33.063.545.095.646.095.019.747.061 1.384.124 1.909 0 .095-.092.143-.276.143-.158 0-.247-.051-.266-.152-.069-.462-.243-.836-.522-1.121a1.335 1.335 0 00-.998-.437c-.988 0-1.482.431-1.482 1.292 0 .291.118.56.352.807.234.247.744.567 1.529.96.938.469 1.555.874 1.853 1.216.298.342.446.728.446 1.159zM55.211 64.286s3.902-3.595 10.123-2.323c-.22-.78-.517-1.54-.912-2.261 0 0 4.455-2.345 12.37-2.635.442-.016.789 0 1.135.032 2.085-.758 11.261-4.186 20.499-5.466 5.971-.829 9.46.347 10.365.704 1.444.57 3.456 1.78 4.664 4.136 1.208 2.355 1.401 4.874 1.444 5.275.059.56-.505.68-.719.156-.167-.403-1.621-3.218-3.164-4.598-1.544-1.38-3.54-2.414-7.064-2.75-3.524-.337-9.726-.084-12.034.166-4.397.473-7.735 1.374-10.94 2.32-.378.114-.99.296-1.586.471 4.66 6.139-.483 12.525-.483 12.525s2.764-6.351-.58-10.917a17.656 17.656 0 00-3.599-.253c-2.941.094-6.044.697-7.498 1.017 1.551 9.57-2.82 14.259-2.82 14.259s1.945-5.174 1.312-10.223c-3.417-2.32-8.014-.159-9.01.357.518 7.174-3.57 12.904-3.57 12.904s2.403-7.249 2.067-12.896zm3.894-15.877s3.905-3.598 10.129-2.323a12.015 12.015 0 00-1.272-3.458s4.455-2.345 12.37-2.635c.719-.027 1.454-.003 2.2.061a12.25 12.25 0 00-.84-2.21s3.479-1.998 11.393-2.288c1.345-.048 2.85-.091 4.399-.056.523-4.537-2.332-9.363-2.332-9.363s4.31 3.756 4.8 9.492c2.226.19 4.402.61 6.179 1.46 2.555 1.226 2.928 3.587 2.928 3.587s.303.86-.067 1.038c-.37.177-.542-.259-1.251-.92-1.876-1.75-3.897-2.509-5.086-2.759-3.386-.715-7.49-.97-10.78-.866-2.735.086-5.553.546-7.078.829.102 10.857-2.925 12.073-2.925 12.073s1.495-3.587 1.066-7.806a18.102 18.102 0 00-4.67-.468c-2.982.094-6.13.715-7.56 1.03 1.092 9.91-2.459 11.212-2.459 11.212s1.366-2.592 1.208-6.095c-3.4-2.149-7.872-.049-8.851.462.526 7.096-3.294 10.272-3.294 10.272s2.129-4.623 1.793-10.27zm12.48-10.42s2.429-4.541-.295-9.765c0 0 3.634-2.713 10.544-3.16-.096-4.63-3.768-9.064-3.768-9.064s5.086 3.186 6.32 9.037c4.652.266 7.902 2.294 8.933 3.197.523.46.708.966.383 1.302-.29.3-.848-.076-1.218-.32-.325-.218-2.657-2.326-9.77-2.326-4.446 0-7.237.766-8.706 1.339 1.015 8.421-2.423 9.76-2.423 9.76zm2.574 39c9.484-3.394 17.332-5.38 24.723-5.919 7.517-.545 10.802-.204 14.184.643 1.854.465 3.696 1.506 5.207 3.896 1.511 2.388 1.457 5.166 1.508 5.572.072.567-.631.69-.899.158-.207-.411-1.334-3.197-3.266-4.595-1.933-1.398-4.214-2.57-8.624-2.912-4.409-.342-9.315-.374-13.507.134-2.794.34-12.501 2.022-17.448 3.719l.298.14c11.57 5.622 2.765 24.277 1.557 26.706 4.15-.888 8.105-1.686 11.47-2.345 8.79-1.721 13.892.14 15.875 1.164 6.763-4.055 21.227-11.944 21.227-11.944s1.384-.766 1.532-.546c.239.358-17.595 11.861-21.723 14.687-2.767 1.896-5.212 4.418-5.92 6.811 6.398.438 8.269 4.673 8.269 4.673.815 1.877-.403 2.084-1.208 1.479-.805-.605-2.445-2.159-6.433-3.055-3.642-.817-10.413-.126-20.947 2.764l-3.913 1.052c-.271.046-.153-.065.118-.175a190.74 190.74 0 016.266-2.398c-.499-.681-2.066-2.38-5.265-2.337-4.179.056-12.74 2.065-26.39 6.978l-1.444.524c-1.165.366-.242-.108.03-.242 3.572-1.662 10.882-4.948 15.979-6.461 6.98-2.074 15.727-5.631 19.798-.027l.357.489c4.005-1.361 8.411-2.665 11.72-3.124.352-1.167 1.442-4.109 3.962-6.421-2.96-2.802-11.645-1.46-25.435 1.083-14.224 2.622-28.722 6.69-28.789 6.152 0 0-.021.014-.021-.064 0-.269 2.643-1.248 2.643-1.248a76.056 76.056 0 014.584-1.57c5.615-22.995-5.748-24.162-5.748-24.162s5.155-8.68 13.789-5.639c1.986-1.984 6.264-5.221 11.884-3.64zm2.19 27.875l.338-.906c6.092-17.852.716-23.003-2.496-24.415-4.57-2.009-8.508.871-9.83 2.03 10.013 5.679 3.22 22.027 1.537 25.687a436.03 436.03 0 0110.45-2.396zm-12.061 2.796l.188-.5c7.195-17.932.687-22.92-2.526-24.331-5.633-2.474-9.82 2.468-9.82 2.468s10.225 2.788 3.462 24.719c2.65-.793 5.604-1.584 8.696-2.356z"/></g><defs><clipPath id="clip0"><path fill="#fff" transform="translate(38 16)" d="M0 0h96v146H0z"/></clipPath><filter id="filter0_d" x="0" y="-10" width="173" height="252" filterUnits="userSpaceOnUse" color-interpolation-filters="sRGB"><feFlood flood-opacity="0" result="BackgroundImageFix"/><feColorMatrix in="SourceAlpha" values="0 0 0 0 0 0 0 0 0 0 0 0 0 0 0 0 0 0 127 0"/><feOffset dy="4"/><feGaussianBlur stdDeviation="7"/><feColorMatrix values="0 0 0 0 0.0509804 0 0 0 0 0.2 0 0 0 0 0.411765 0 0 0 0.35 0"/><feBlend in2="BackgroundImageFix" result="effect1_dropShadow"/><feBlend in="SourceGraphic" in2="effect1_dropShadow" result="shape"/></filter></defs></svg>
