<svg width="52" height="65" viewBox="0 0 52 65" fill="none" xmlns="http://www.w3.org/2000/svg">
<path d="M36.0879 32.916C34.8919 31.72 32.9159 31.72 31.6679 32.916L29.4319 35.152C28.5999 35.984 27.2999 35.984 26.4679 35.152L16.7959 25.532C16.3799 25.116 16.1719 24.596 16.1719 24.076C16.1719 23.556 16.3799 22.984 16.7959 22.62L19.0319 20.384C20.2279 19.188 20.2279 17.212 19.0319 15.964L11.5959 8.47597C11.0239 7.90397 10.2439 7.53997 9.41185 7.53997C8.57985 7.53997 7.79985 7.85197 7.22785 8.47597L7.12385 8.57997C4.15985 11.492 2.54785 15.444 2.54785 19.604C2.54785 23.764 4.15985 27.716 7.12385 30.628L21.3719 44.876C24.3879 47.892 28.3919 49.452 32.3959 49.452C36.3999 49.452 40.4039 47.944 43.4199 44.876L43.5239 44.772C44.7199 43.576 44.7199 41.6 43.5239 40.352L36.0879 32.916ZM42.0679 43.316L41.9639 43.42C36.7119 48.672 28.1319 48.672 22.8279 43.42L8.57985 29.172C6.03185 26.624 4.62785 23.244 4.62785 19.604C4.62785 15.964 6.03185 12.584 8.57985 10.036L8.68385 9.93197C8.89185 9.72397 9.15185 9.61997 9.41185 9.61997C9.67185 9.61997 9.93185 9.72397 10.1399 9.93197L17.5759 17.368C17.9919 17.784 17.9919 18.408 17.5759 18.824L15.3399 21.06C14.5599 21.84 14.1439 22.88 14.1439 24.024C14.1439 25.116 14.5599 26.156 15.3399 26.988L25.0119 36.66C26.6239 38.272 29.2759 38.272 30.8879 36.66L33.1239 34.424C33.5399 34.008 34.1639 34.008 34.5799 34.424L42.0159 41.86C42.4319 42.276 42.4319 42.9 42.0679 43.316ZM46.1239 5.87597C41.6519 1.40397 34.4239 1.40397 29.9519 5.87597C26.3119 9.51597 25.5839 15.288 28.1839 19.708L26.7279 23.92C26.6239 24.284 26.6759 24.7 26.9879 24.96C27.2479 25.22 27.6639 25.324 28.0279 25.22L32.2399 23.816C34.0079 24.856 35.9839 25.376 37.9599 25.376C40.9239 25.376 43.8879 24.232 46.0719 22.048C48.2559 19.864 49.3999 17.004 49.3999 13.936C49.3999 10.868 48.2559 8.05997 46.1239 5.87597ZM44.6159 20.592C41.4959 23.712 36.6079 24.232 32.9159 21.84C32.7599 21.736 32.5519 21.684 32.3439 21.684C32.2399 21.684 32.1359 21.684 32.0319 21.736L29.3279 22.62L30.2119 19.916C30.3159 19.604 30.2639 19.292 30.1079 19.032C27.7159 15.34 28.2359 10.452 31.3559 7.33197C34.9959 3.69197 40.9239 3.69197 44.6159 7.33197C46.3839 9.09997 47.3719 11.44 47.3719 13.936C47.3719 16.484 46.3839 18.824 44.6159 20.592Z" fill="#4894FF"/>
</svg>
